<?xml version="1.0" encoding="UTF-8" standalone="no"?>
<!-- Created with Inkscape (http://www.inkscape.org/) -->

<svg
   width="200mm"
   height="200mm"
   viewBox="0 0 200 200"
   version="1.1"
   id="svg5"
   inkscape:version="1.1.1 (3bf5ae0d25, 2021-09-20)"
   sodipodi:docname="icon.svg"
   xmlns:inkscape="http://www.inkscape.org/namespaces/inkscape"
   xmlns:sodipodi="http://sodipodi.sourceforge.net/DTD/sodipodi-0.dtd"
   xmlns="http://www.w3.org/2000/svg"
   xmlns:svg="http://www.w3.org/2000/svg">
  <sodipodi:namedview
     id="namedview7"
     pagecolor="#ffffff"
     bordercolor="#666666"
     borderopacity="1.0"
     inkscape:pageshadow="2"
     inkscape:pageopacity="0.0"
     inkscape:pagecheckerboard="0"
     inkscape:document-units="mm"
     showgrid="false"
     width="200mm"
     inkscape:zoom="0.46324355"
     inkscape:cx="106.85524"
     inkscape:cy="301.13749"
     inkscape:window-width="1366"
     inkscape:window-height="705"
     inkscape:window-x="-8"
     inkscape:window-y="-8"
     inkscape:window-maximized="1"
     inkscape:current-layer="layer1" />
  <defs
     id="defs2" />
  <g
     inkscape:label="Layer 1"
     inkscape:groupmode="layer"
     id="layer1">
    <g
       id="g165">
      <path
         style="fill:#fdfcfc;stroke-width:0.197093"
         d="m 88.293224,162.51267 c -1.409219,-0.0946 -3.803904,-0.25605 -5.321524,-0.3589 -2.785447,-0.18876 -7.666349,-1.02336 -11.163877,-1.90895 -9.793591,-2.47978 -14.88775,-6.98745 -17.587585,-15.56273 -1.517738,-4.82067 -2.07012,-9.32242 -2.230984,-18.18187 l -0.118991,-6.55336 h 8.672572 8.67257 l 0.115682,5.46935 c 0.246292,11.6444 1.706303,17.05193 5.148616,19.06926 3.791459,2.22194 13.489452,3.24936 28.201347,2.98767 13.23353,-0.23538 20.4007,-1.2706 23.48003,-3.39141 3.54322,-2.44031 5.18184,-9.34056 4.94455,-20.82153 -0.11522,-5.57511 -0.42967,-7.65552 -1.57275,-10.40543 -1.41922,-3.41419 -4.40568,-5.02156 -11.13742,-5.99434 -2.22872,-0.32206 -4.75836,-0.47607 -23.006871,-1.4007 -5.420071,-0.27463 -11.096363,-0.6361 -12.613983,-0.80327 -18.407397,-2.02764 -28.34728,-11.759278 -29.878689,-29.252724 -0.499896,-5.710369 0.15867,-15.315704 1.350467,-19.696849 0.282009,-1.036689 0.549471,-2.35052 0.594359,-2.919627 0.04849,-0.614735 0.175601,-1.034741 0.313156,-1.034741 0.127346,0 0.439534,-0.554325 0.693751,-1.231834 0.53207,-1.418003 1.147041,-2.670991 1.53118,-3.119741 0.146498,-0.171139 0.266358,-0.380986 0.266358,-0.466327 0,-0.609406 3.402466,-4.415158 5.025884,-5.621591 2.654516,-1.972691 6.527913,-3.60823 11.677788,-4.93094 0.50522,-0.129762 0.837648,-0.329458 0.837648,-0.503188 0,-0.230561 0.34416,-0.288452 1.724568,-0.290084 0.948512,-0.0012 2.70018,-0.170624 3.892596,-0.376669 4.34219,-0.750317 7.597778,-0.902402 19.315158,-0.902314 11.6039,8.9e-5 14.71623,0.157787 19.6108,0.993663 0.92142,0.157355 2.45135,0.286385 3.39987,0.286731 1.31171,3.95e-4 1.72456,0.064 1.72456,0.265347 0,0.276274 2.69384,1.114937 3.58125,1.114937 0.26338,0 0.56314,0.07934 0.66612,0.176317 0.10298,0.09698 0.85243,0.412485 1.66544,0.701135 1.74559,0.619752 4.40079,2.019159 5.80149,3.057641 3.68084,2.728994 6.32265,7.70711 7.79588,14.69024 0.79651,3.775456 1.15978,7.21495 1.31664,12.466162 l 0.12511,4.188237 h -8.70212 -8.70212 l -6e-4,-2.315849 c -0.002,-5.883764 -0.99602,-11.728518 -2.50234,-14.709222 -0.66074,-1.307478 -2.10198,-2.700251 -3.45805,-3.341777 -2.37648,-1.124217 -6.34583,-1.892085 -11.97452,-2.316447 -4.18368,-0.315421 -18.30364,-0.127226 -22.66575,0.302093 -10.534171,1.036775 -14.103824,2.638758 -16.274505,7.303649 -1.508145,3.241077 -1.953131,6.535894 -1.793819,13.282035 0.173108,7.330293 1.050755,11.214381 3.086947,13.661503 2.141133,2.573245 10.473122,3.968329 29.763387,4.983499 18.75291,0.986892 29.51608,3.042721 35.8124,6.840379 6.0273,3.635397 9.05246,11.862366 9.6248,26.174786 0.14434,3.60935 -0.15335,10.47823 -0.60083,13.86346 -1.28303,9.70637 -4.08445,15.9341 -8.80295,19.56949 -4.6642,3.59355 -13.17144,5.75727 -26.67148,6.78356 -3.60199,0.27384 -20.357542,0.40225 -23.651216,0.18127 z"
         id="path181" />
      <path
         style="fill:#ec22b6;stroke-width:0.197093"
         d="M -0.10320045,100.23751 V -0.67434549 h 0.68982717 c 0.41819328,0 0.69150518,0.0970121 0.69408858,0.24636685 0.010789,0.62374728 1.2347066,2.47384814 2.8623913,4.32685414 0.9804511,1.1161759 2.3255627,2.694601 2.9891364,3.5076115 0.6635737,0.8130106 10.016628,10.267003 20.784564,21.008872 17.699857,17.657007 19.682062,19.573459 20.662081,19.976695 0.596208,0.245314 1.30306,0.636141 1.570784,0.868504 0.307422,0.266821 0.389303,0.2954 0.222233,0.07757 -0.232574,-0.303242 -0.213994,-0.344913 0.153786,-0.344913 0.346683,0 0.418319,0.11813 0.418319,0.689827 0,0.656977 0.03285,0.689827 0.689827,0.689827 0.656978,0 0.689827,0.03285 0.689827,0.689827 0,0.656978 0.03285,0.689827 0.689827,0.689827 0.656978,0 0.689828,0.03285 0.689828,0.689827 0,0.638447 0.04503,0.689828 0.604562,0.689828 0.483137,0 0.584126,0.06927 0.502815,0.344913 -1.358171,4.604124 -1.894787,8.566867 -2.040282,15.066854 -0.0657,2.935274 -0.01689,5.607704 0.131385,7.193912 1.151416,12.317136 6.48523,20.712303 16.058559,25.275393 5.305729,2.52896 11.012368,3.69756 20.219786,4.14059 2.439032,0.11735 4.814614,0.26243 5.279068,0.32238 l 0.844465,0.10902 -2.322666,1.54013 -2.322665,1.54014 -0.09855,-0.61704 c -0.09287,-0.58149 -0.11404,-0.55646 -0.367455,0.43458 -0.338802,1.32496 -0.438488,1.43479 -10.673625,11.75945 -7.78537,7.85347 -8.88171,9.03401 -9.498292,10.22773 -0.179847,0.34819 -0.347298,0.4847 -0.430138,0.35066 -0.07461,-0.12071 -0.190485,-2.61675 -0.257507,-5.54675 l -0.121861,-5.32728 h -8.669139 -8.669137 l 0.113179,6.75045 c 0.155708,9.28694 0.857209,14.58146 2.507142,18.92248 0.522396,1.37443 0.502697,1.52597 -0.198367,1.52597 -0.544352,0 -0.59128,0.0548 -0.59128,0.68983 0,0.65698 -0.03285,0.68983 -0.689828,0.68983 -0.656977,0 -0.689827,0.0328 -0.689827,0.68982 0,0.65222 -0.0363,0.68983 -0.665695,0.68983 -0.387316,0 -0.778809,0.13945 -0.936194,0.33347 -0.183799,0.2266 -0.191535,0.28604 -0.02413,0.18547 0.135502,-0.0814 0.246367,-0.0541 0.246367,0.0607 0,0.1148 -0.135567,0.20872 -0.301261,0.20872 -0.165693,0 -0.853056,0.27448 -1.527475,0.60994 -1.086259,0.54033 -3.483422,2.86297 -21.002807,20.34991 -10.877126,10.85697 -20.5175425,20.59343 -21.4231469,21.63656 -0.9056041,1.04314 -2.4298862,2.74011 -3.3872932,3.77104 -0.9574072,1.03095 -1.9927862,2.37261 -2.3008424,2.98147 -0.30805613,0.60886 -0.68256575,1.10701 -0.83224352,1.10701 -0.23110524,0 -0.27214143,-15.21649 -0.27214143,-100.91186 z M 96.1304,162.77181 c 0.299593,-0.0453 0.743054,-0.0441 0.985467,0.003 0.242413,0.0468 -0.0027,0.0839 -0.544717,0.0824 -0.542007,-0.002 -0.740344,-0.0398 -0.44075,-0.0851 z m 2.562215,0 c 0.299594,-0.0453 0.743054,-0.0441 0.985467,0.003 0.242413,0.0468 -0.0027,0.0839 -0.544717,0.0824 -0.542007,-0.002 -0.740344,-0.0398 -0.44075,-0.0851 z M 86.125196,87.884553 c -1.710486,-0.214373 -6.14331,-0.878582 -6.357893,-0.952661 -0.150536,-0.05197 0.09712,-0.403731 0.630191,-0.895096 0.534635,-0.492813 1.01064,-1.169644 1.216766,-1.73013 0.186218,-0.506353 0.391331,-0.983621 0.455806,-1.060592 0.06448,-0.07697 0.914563,0.530938 1.889084,1.350912 0.974523,0.819974 2.437049,1.925071 3.25006,2.455771 l 1.478201,0.964909 -0.985468,-0.02951 C 87.159936,87.97194 86.4504,87.92531 86.125196,87.884553 Z m -9.460487,-1.742125 c -0.867212,-0.260984 -1.628061,-0.47796 -1.690779,-0.482172 -0.466279,-0.03132 -2.056707,-1.400516 -2.629926,-2.264105 -1.298592,-1.956413 -2.673473,-7.184601 -2.07804,-7.902055 0.212869,-0.256492 0.210193,-0.29932 -0.01559,-0.2493 -0.327683,0.07259 -0.619766,-2.187733 -0.536947,-4.15525 l 0.05301,-1.259243 0.983118,1.259243 c 0.540714,0.692582 1.327009,1.635038 1.747322,2.094342 0.523826,0.572421 0.679553,0.860331 0.495083,0.915308 -0.148017,0.04412 -0.579543,0.169848 -0.958948,0.279408 -0.662892,0.191423 -0.654571,0.195217 0.213153,0.0972 0.607329,-0.06861 1.09811,-0.0012 1.498953,0.206183 0.89724,0.463982 6.430521,6.037854 7.059732,7.111521 0.302292,0.515823 0.575332,1.172079 0.606757,1.458352 0.08999,0.81979 -0.862048,2.359788 -1.797893,2.908228 -0.983678,0.576473 -0.974612,0.576528 -2.949005,-0.01766 z"
         id="path179" />
      <path
         style="fill:#a566a8;stroke-width:0.197093"
         d="m 0.6815304,200.66622 c 0.3584305,-0.94274 1.2461095,-2.15599 2.7339098,-3.73658 0.8289836,-0.88069 2.2752108,-2.48666 3.2138382,-3.56883 0.9386273,-1.08216 10.6060626,-10.85055 21.4831886,-21.70752 17.519385,-17.48694 19.916548,-19.80958 21.002807,-20.34991 1.359271,-0.67612 1.828736,-0.75681 1.828736,-0.3143 0,0.1866 -0.188047,0.29564 -0.509853,0.29564 -0.385608,0 -0.564289,0.14421 -0.733223,0.59178 -0.122855,0.32547 -0.359054,0.63515 -0.524888,0.68818 -0.460665,0.14729 -40.1689748,39.93958 -42.0302345,42.11912 -3.8295568,4.48443 -5.7265183,6.46557 -6.19084739,6.46557 -0.40374616,0 -0.43567664,-0.0564 -0.27343371,-0.48315 z M 97.605891,162.78271 c 0.135501,-0.0547 0.357231,-0.0547 0.492733,0 0.135502,0.0547 0.02464,0.0994 -0.246367,0.0994 -0.271003,0 -0.381868,-0.0447 -0.246366,-0.0994 z m -7.984584,-0.20198 c 0.188439,-0.0493 0.543207,-0.0511 0.788374,-0.004 0.245166,0.0471 0.09099,0.0875 -0.342616,0.0897 -0.433606,0.002 -0.634197,-0.0364 -0.445758,-0.0857 z m 16.560863,-0.006 c 0.29959,-0.0453 0.74305,-0.0441 0.98546,0.003 0.24242,0.0468 -0.003,0.0838 -0.54471,0.0824 -0.54201,-0.002 -0.74035,-0.0398 -0.44075,-0.0851 z m -20.011452,-0.18495 c 0.133438,-0.054 0.399515,-0.0573 0.591281,-0.007 0.191766,0.05 0.08259,0.0941 -0.242617,0.0982 -0.325204,0.004 -0.482102,-0.0369 -0.348664,-0.0909 z m 24.147702,-0.007 c 0.1897,-0.0496 0.50012,-0.0496 0.68983,0 0.1897,0.0496 0.0345,0.0901 -0.34492,0.0901 -0.3794,0 -0.53461,-0.0406 -0.34491,-0.0901 z m 3.05495,-0.19176 c 0.1355,-0.0547 0.35723,-0.0547 0.49273,0 0.1355,0.0547 0.0246,0.0994 -0.24636,0.0994 -0.27101,0 -0.38187,-0.0447 -0.24637,-0.0994 z m 2.27068,-0.18564 c 0.0655,-0.0655 0.23549,-0.0725 0.37776,-0.0155 0.15723,0.0629 0.11053,0.10962 -0.11908,0.11907 -0.20776,0.009 -0.32417,-0.038 -0.25868,-0.10351 z m 1.86828,-0.20855 c 0.1355,-0.0547 0.35723,-0.0547 0.49274,0 0.1355,0.0547 0.0246,0.0994 -0.24637,0.0994 -0.271,0 -0.38187,-0.0447 -0.24637,-0.0994 z m 4.43871,-0.57983 c 0.0655,-0.0655 0.23549,-0.0725 0.37776,-0.0155 0.15723,0.0629 0.11053,0.10962 -0.11907,0.11908 -0.20777,0.009 -0.32418,-0.038 -0.25869,-0.10352 z m 4.18413,-0.65248 c 0.96982,-0.38206 1.4782,-0.42303 1.4782,-0.11911 0,0.22753 -0.22471,0.29639 -0.93619,0.2869 -0.66736,-0.009 -0.823,-0.0571 -0.54201,-0.16779 z m 5.02588,-1.27493 c 0,-0.0416 0.17751,-0.12198 0.39446,-0.17871 0.21696,-0.0567 0.34476,-0.0227 0.28401,0.0755 -0.10608,0.17166 -0.67847,0.25868 -0.67847,0.10316 z m 3.94158,-1.59059 c 0.52705,-0.29169 0.71123,-0.26366 0.50113,0.0763 -0.0714,0.11561 -0.32424,0.20706 -0.56174,0.20322 -0.41644,-0.007 -0.41428,-0.0167 0.0606,-0.27951 z m 3.54798,-2.17718 c 0.13494,-0.1626 0.2897,-0.29564 0.3439,-0.29564 0.0542,0 -0.0119,0.13304 -0.14681,0.29564 -0.13495,0.16261 -0.28971,0.29564 -0.34391,0.29564 -0.0542,0 0.0119,-0.13303 0.14682,-0.29564 z m 0.78837,-0.51128 c 0,-0.0542 0.35477,-0.44497 0.78837,-0.86837 0.43361,-0.4234 0.78838,-0.72548 0.78838,-0.67128 0,0.0542 -0.35477,0.44497 -0.78838,0.86837 -0.4336,0.42341 -0.78837,0.72549 -0.78837,0.67128 z m 2.16803,-2.44512 c 0.13495,-0.1626 0.2897,-0.29564 0.34391,-0.29564 0.0542,0 -0.0119,0.13304 -0.14682,0.29564 -0.13495,0.1626 -0.2897,0.29564 -0.3439,0.29564 -0.0542,0 0.0119,-0.13304 0.14681,-0.29564 z m -40.7988,-5.1737 c -2e-4,-0.0813 0.82015,-0.12419 1.82311,-0.0953 3.31027,0.0953 3.63615,0.17157 0.88737,0.2076 -1.49051,0.0195 -2.71023,-0.031 -2.71048,-0.11229 z m 8.2291,-0.18837 c 0.24391,-0.047 0.64302,-0.047 0.88692,0 0.24391,0.047 0.0444,0.0854 -0.44346,0.0854 -0.4878,0 -0.68736,-0.0384 -0.44346,-0.0854 z m 3.34684,-0.18728 c 0.13344,-0.054 0.39951,-0.0573 0.59128,-0.007 0.19177,0.05 0.0826,0.0941 -0.24262,0.0982 -0.3252,0.004 -0.4821,-0.0369 -0.34866,-0.0909 z m 32.51634,-0.26491 c 0.13215,-0.50532 0.2542,-0.50532 0.2542,0 0,0.21681 -0.0804,0.39419 -0.17864,0.39419 -0.0982,0 -0.13226,-0.17738 -0.0756,-0.39419 z m -30.14747,0.0666 c 0.1355,-0.0547 0.35723,-0.0547 0.49274,0 0.1355,0.0547 0.0246,0.0994 -0.24637,0.0994 -0.271,0 -0.38187,-0.0447 -0.24637,-0.0994 z m 1.6794,-0.18564 c 0.0655,-0.0655 0.23549,-0.0725 0.37777,-0.0155 0.15722,0.0629 0.11052,0.10962 -0.11908,0.11907 -0.20777,0.009 -0.32418,-0.038 -0.25869,-0.10352 z m -14.4412,-0.25236 c 0,-0.17694 0.59224,-0.48167 0.70907,-0.36484 0.0338,0.0337 -0.11197,0.16963 -0.32385,0.30195 -0.21187,0.13231 -0.38522,0.16062 -0.38522,0.0629 z m 16.01795,0.0553 c 0.0655,-0.0655 0.23549,-0.0725 0.37776,-0.0155 0.15723,0.0629 0.11053,0.10962 -0.11907,0.11908 -0.20777,0.009 -0.32418,-0.038 -0.25869,-0.10352 z m -14.59464,-1.09589 c 0.0421,-0.12622 0.29336,-0.36607 0.55843,-0.53301 l 0.48193,-0.30351 -0.47782,0.53301 c -0.5158,0.57539 -0.68329,0.66576 -0.56254,0.30351 z m 1.34256,-1.08989 c 0.009,-0.21845 0.77337,-1.11995 0.86852,-1.02437 0.0423,0.0425 -0.13733,0.32604 -0.39911,0.63019 -0.26179,0.30414 -0.47302,0.48153 -0.46941,0.39418 z m 22.265,-0.94718 c 0.13495,-0.1626 0.28971,-0.29564 0.34391,-0.29564 0.0542,0 -0.0119,0.13304 -0.14681,0.29564 -0.13495,0.1626 -0.28971,0.29564 -0.34391,0.29564 -0.0542,0 0.0119,-0.13304 0.14681,-0.29564 z m 19.11694,-0.45514 c 0.092,-0.29168 0.21161,-0.66337 0.26575,-0.82597 0.0542,-0.1626 0.10545,0.0275 0.11401,0.42237 0.01,0.45164 -0.0888,0.75807 -0.26576,0.82597 -0.22389,0.0859 -0.24716,-3.9e-4 -0.114,-0.42237 z m 1.19925,-6.42671 c -0.009,-0.20777 0.038,-0.32418 0.10352,-0.25868 0.0655,0.0655 0.0725,0.23548 0.0155,0.37776 -0.0629,0.15723 -0.10962,0.11053 -0.11908,-0.11908 z m 0.21265,-1.69172 c 0,-0.271 0.0447,-0.38187 0.0994,-0.24636 0.0547,0.1355 0.0547,0.35723 0,0.49273 -0.0547,0.1355 -0.0994,0.0246 -0.0994,-0.24637 z m -16.96559,-1.26468 c -0.009,-0.20777 0.038,-0.32418 0.10351,-0.25869 0.0655,0.0655 0.0725,0.23549 0.0155,0.37777 -0.0629,0.15722 -0.10962,0.11052 -0.11907,-0.11908 z m 17.16999,-1.00189 c -0.004,-0.32521 0.0369,-0.4821 0.0909,-0.34867 0.054,0.13344 0.0573,0.39952 0.007,0.59128 -0.05,0.19177 -0.0941,0.0826 -0.0982,-0.24261 z m -16.9729,-0.77195 c -0.009,-0.20777 0.038,-0.32418 0.10352,-0.25869 0.0655,0.0655 0.0725,0.23549 0.0155,0.37777 -0.0629,0.15722 -0.10962,0.11052 -0.11908,-0.11908 z m -61.296073,-0.47152 c -0.0086,-0.2503 0.06675,-0.40422 0.167343,-0.34205 0.100598,0.0622 0.239399,-0.065 0.308447,-0.28251 0.277289,-0.87366 2.06457,-2.80967 9.647499,-10.45031 10.112052,-10.18902 10.243309,-10.33365 10.582698,-11.66091 0.254489,-0.99523 0.274192,-1.01829 0.367455,-0.43001 l 0.09855,0.62161 2.168028,-1.45602 c 1.192415,-0.8008 2.234547,-1.45747 2.315848,-1.45925 0.0813,-0.002 0.14782,0.26283 0.14782,0.58803 0,0.54435 -0.05475,0.59128 -0.689827,0.59128 -0.635079,0 -0.689827,0.0469 -0.689827,0.59128 0,0.52559 -0.0657,0.59128 -0.591281,0.59128 -0.472758,0 -0.59128,0.0845 -0.59128,0.42174 0,0.47211 -0.511057,0.94213 -1.034741,0.95165 -0.194511,0.004 -0.345128,0.15667 -0.345404,0.35118 -5.91e-4,0.44958 -16.750013,17.19641 -17.199017,17.19641 -0.200845,0 -0.341812,0.14997 -0.341812,0.36364 0,0.42226 -0.589946,1.01601 -1.009501,1.01601 -0.158751,0 -0.373498,0.28825 -0.477214,0.64056 -0.145544,0.49437 -0.312273,0.65478 -0.730586,0.70291 -0.473935,0.0545 -0.542007,0.14736 -0.542007,0.7391 0,0.63888 -0.03768,0.67674 -0.673404,0.67674 -0.37037,0 -0.718137,0.11087 -0.772813,0.24637 -0.05468,0.1355 -0.106413,0.0416 -0.114971,-0.20873 z m -17.541319,-0.90814 c -0.0086,-0.20776 0.03803,-0.32417 0.103517,-0.25868 0.06549,0.0655 0.07249,0.23549 0.01555,0.37776 -0.06292,0.15723 -0.109619,0.11053 -0.119076,-0.11908 z m 79.068622,-1.19898 c -0.002,-0.43361 0.0364,-0.6342 0.0857,-0.44576 0.0493,0.18844 0.0511,0.54321 0.004,0.78837 -0.0471,0.24517 -0.0875,0.091 -0.0897,-0.34261 z m 16.96141,-0.39419 c -10e-4,-0.65041 0.0348,-0.94024 0.0798,-0.64408 0.045,0.29616 0.0459,0.82831 0.002,1.18256 -0.0439,0.35424 -0.0807,0.11193 -0.0818,-0.53848 z m -78.662943,-0.78837 c -0.004,-0.32521 0.03687,-0.4821 0.09086,-0.34867 0.05399,0.13344 0.05727,0.39952 0.0073,0.59128 -0.04997,0.19177 -0.09414,0.0826 -0.09816,-0.24261 z m 57.261033,-5.82419 c 0.24089,-0.2535 0.47611,-0.42149 0.5227,-0.37331 0.0466,0.0482 -0.1505,0.25559 -0.43798,0.46091 l -0.52271,0.3733 z m 21.39452,-0.97554 c 0,-0.4878 0.0384,-0.68736 0.0854,-0.44346 0.047,0.24391 0.047,0.64302 0,0.88692 -0.047,0.24391 -0.0854,0.0444 -0.0854,-0.44346 z m -20.34148,0.0986 c -4e-4,-0.28249 0.55422,-0.97686 0.67989,-0.85118 0.058,0.058 -0.0711,0.31763 -0.28705,0.57689 -0.2159,0.25926 -0.39268,0.38269 -0.39284,0.27429 z m 3.37618,-0.98547 c -0.004,-0.3252 0.0369,-0.4821 0.0909,-0.34866 0.054,0.13344 0.0573,0.39951 0.007,0.59128 -0.05,0.19176 -0.0942,0.0826 -0.0982,-0.24262 z m -0.21995,-1.95451 c -0.009,-0.20777 0.038,-0.32418 0.10352,-0.25868 0.0655,0.0655 0.0725,0.23548 0.0155,0.37776 -0.0629,0.15723 -0.10962,0.11053 -0.11908,-0.11908 z m 16.9656,-0.50916 c 0,-0.271 0.0447,-0.38186 0.0994,-0.24636 0.0547,0.1355 0.0547,0.35723 0,0.49273 -0.0547,0.1355 -0.0994,0.0246 -0.0994,-0.24637 z m -0.21266,-2.05305 c -0.009,-0.20777 0.038,-0.32418 0.10352,-0.25869 0.0655,0.0655 0.0725,0.23549 0.0155,0.37776 -0.0629,0.15723 -0.10962,0.11053 -0.11907,-0.11907 z M 94.645738,105.42976 c 0.133438,-0.054 0.399514,-0.0573 0.59128,-0.007 0.191766,0.05 0.08259,0.0941 -0.242616,0.0982 -0.325204,0.004 -0.482102,-0.0369 -0.348664,-0.0909 z m -3.44128,-0.18689 c 0.06549,-0.0655 0.235485,-0.0725 0.377763,-0.0155 0.157228,0.0629 0.110526,0.10962 -0.119078,0.11907 -0.207768,0.009 -0.324177,-0.038 -0.258685,-0.10352 z m -3.94187,-0.1971 c 0.06549,-0.0655 0.235486,-0.0725 0.377764,-0.0156 0.157227,0.0629 0.110526,0.10962 -0.119078,0.11908 -0.207768,0.009 -0.324178,-0.038 -0.258686,-0.10352 z m 1.378259,-16.972388 c 0.299594,-0.0453 0.743055,-0.04409 0.985468,0.0027 0.242413,0.04678 -0.0027,0.08385 -0.544717,0.08237 -0.542007,-0.0016 -0.740345,-0.03976 -0.440751,-0.08506 z m -1.628731,-1.129483 c -0.704609,-0.47283 -2.078443,-1.529761 -3.052966,-2.348734 -0.974521,-0.818973 -1.824609,-1.426064 -1.889084,-1.349091 -0.06448,0.07697 -0.269588,0.554239 -0.455806,1.060592 -0.352602,0.958773 -1.831956,2.528492 -2.382933,2.528492 -0.504711,0 -0.336196,-0.285078 0.404221,-0.683818 0.757544,-0.407965 1.682421,-1.778128 1.776059,-2.631152 0.109337,-0.996038 -0.931297,-2.417919 -4.029472,-5.50572 -1.665042,-1.659468 -3.29862,-3.157491 -3.63017,-3.328942 -0.407574,-0.210764 -0.895288,-0.278692 -1.5058,-0.209725 -0.867724,0.09802 -0.876045,0.09423 -0.213153,-0.0972 0.379405,-0.10956 0.815764,-0.237147 0.969684,-0.283527 0.201416,-0.06069 0.08549,-0.289621 -0.413573,-0.816761 -1.266235,-1.337455 -2.921233,-3.530502 -2.921233,-3.870942 0,-0.259903 0.144486,-0.321672 0.640554,-0.273843 0.563238,0.05431 0.648008,0.139077 0.702315,0.702315 0.04794,0.497184 0.153358,0.640554 0.471006,0.640554 0.461262,0 0.929741,0.516154 0.939166,1.03474 0.0037,0.201595 0.157368,0.344914 0.369907,0.344914 0.439562,0 1.016015,0.595882 1.016015,1.05026 0,0.181166 0.145167,0.329394 0.322597,0.329394 0.437658,0 7.758236,7.297808 7.758236,7.734106 0,0.205622 0.147987,0.346727 0.363639,0.346727 0.439562,0 1.016015,0.595882 1.016015,1.05026 0,0.188776 0.155239,0.329394 0.36364,0.329394 0.439561,0 1.016014,0.595883 1.016014,1.05026 0,0.185798 0.154658,0.329394 0.354769,0.329394 0.449588,0 0.827792,0.372499 0.827792,0.815305 0,0.242098 0.187486,0.360358 0.640554,0.404042 0.563238,0.05431 0.648008,0.139077 0.702315,0.702315 0.05654,0.586436 0.118987,0.640554 0.739101,0.640554 0.621203,0 0.677339,0.049 0.677339,0.59128 0,0.325204 -0.06652,0.587447 -0.14782,0.582764 -0.0813,-0.0047 -0.724319,-0.395379 -1.428928,-0.86821 z M 69.864984,75.436586 c 0,-0.09034 0.129137,-0.164246 0.28697,-0.164246 0.157834,0 0.241291,0.07391 0.185461,0.164246 -0.131556,0.212861 -0.472431,0.212861 -0.472431,0 z m 75.945666,-4.467453 c -7.9e-4,-0.75881 0.034,-1.093384 0.0776,-0.743495 0.0435,0.349886 0.0443,0.97073 0.002,1.379654 -0.0427,0.408922 -0.0783,0.122651 -0.0792,-0.636159 z m -17.55629,-3.547682 c -0.002,-0.433606 0.0364,-0.634198 0.0857,-0.445759 0.0493,0.188439 0.0511,0.543208 0.004,0.788374 -0.0471,0.245167 -0.0875,0.09099 -0.0897,-0.342615 z M 52.733412,65.861127 c -0.0086,-0.207768 0.03802,-0.324178 0.103517,-0.258686 0.06549,0.06549 0.07249,0.235486 0.01555,0.377764 -0.06292,0.157227 -0.10962,0.110526 -0.119076,-0.119078 z M 145.5873,65.450516 c -0.004,-0.325204 0.0369,-0.482103 0.0909,-0.348664 0.054,0.133438 0.0573,0.399514 0.007,0.59128 -0.05,0.191766 -0.0941,0.08259 -0.0982,-0.242616 z m -17.54862,-0.689827 c 0,-0.271004 0.0447,-0.381869 0.0994,-0.246367 0.0547,0.135502 0.0547,0.357232 0,0.492734 -0.0547,0.135501 -0.0994,0.02464 -0.0994,-0.246367 z m -0.21265,-1.855964 c -0.009,-0.207769 0.038,-0.324178 0.10351,-0.258686 0.0655,0.06549 0.0725,0.235486 0.0155,0.377763 -0.0629,0.157228 -0.10961,0.110527 -0.11907,-0.119077 z m 17.55687,-0.114971 c 0,-0.271004 0.0447,-0.381869 0.0994,-0.246367 0.0547,0.135502 0.0547,0.357232 0,0.492734 -0.0547,0.135502 -0.0994,0.02464 -0.0994,-0.246367 z m -0.21265,-1.855964 c -0.009,-0.207768 0.038,-0.324178 0.10352,-0.258685 0.0655,0.06549 0.0725,0.235485 0.0155,0.377763 -0.0629,0.157227 -0.10962,0.110526 -0.11908,-0.119078 z m -0.40412,-3.31774 c -0.14003,-0.78591 -0.29676,-1.539793 -0.34829,-1.675294 -0.0566,-0.148786 0.0708,-0.246367 0.32158,-0.246367 0.38973,0 0.41527,0.10304 0.41527,1.675294 0,0.921412 -0.0301,1.675295 -0.067,1.675295 -0.0368,0 -0.18155,-0.643018 -0.32158,-1.428928 z m -43.63128,-4.844309 c -0.3593,-0.397019 -0.43848,-0.717694 -0.13016,-0.527142 0.2056,0.127066 0.66082,0.887575 0.53128,0.887575 -0.0412,0 -0.22172,-0.162195 -0.40112,-0.360433 z m 42.25774,-1.167042 c -0.1455,-0.406505 -0.30584,-0.849965 -0.35632,-0.985467 -0.0552,-0.148181 0.0737,-0.246367 0.32349,-0.246367 0.36694,0 0.41528,0.114716 0.41528,0.985467 0,0.542007 -0.0265,0.985468 -0.059,0.985468 -0.0324,0 -0.17799,-0.332596 -0.32349,-0.739101 z M 99.723552,51.357124 c -0.526922,-0.582242 -0.244834,-0.673811 0.297458,-0.09656 0.2542,0.270576 0.37177,0.491957 0.26127,0.491957 -0.11049,0 -0.361923,-0.177928 -0.558728,-0.395395 z m -1.583759,-1.194465 c -0.2147,-0.347393 0.01163,-0.396099 0.416679,-0.08967 0.333457,0.252274 0.339133,0.2881 0.04652,0.293604 -0.183304,0.0035 -0.391743,-0.08832 -0.463197,-0.203938 z M 113.47602,49.8596 c 0.0655,-0.06549 0.23549,-0.07249 0.37776,-0.01555 0.15723,0.06292 0.11053,0.10962 -0.11907,0.119076 -0.20777,0.0086 -0.32418,-0.03802 -0.25869,-0.103517 z m -2.07359,-0.208547 c 0.13551,-0.05467 0.35724,-0.05467 0.49274,0 0.1355,0.05468 0.0246,0.09941 -0.24637,0.09941 -0.271,0 -0.38187,-0.04474 -0.24637,-0.09941 z m -61.258744,-0.3766 C 50.002167,49.103932 49.303944,48.701288 48.59208,48.379688 47.369647,47.82743 46.216193,46.714704 27.818687,28.339825 17.105187,17.6395 7.7964793,8.2194976 7.1326705,7.406487 6.4688614,6.5934765 5.1235577,5.0150514 4.1431066,3.8988755 2.5154219,2.0458695 1.2915044,0.19576864 1.2807153,-0.42797864 1.2722419,-0.91785107 2.0125553,-0.65941067 2.4768099,-0.01042683 2.7380262,0.35472843 3.7008312,1.4709833 4.6163767,2.4701396 5.5319222,3.4692957 6.8464846,5.0108927 7.5376268,5.8959106 9.1719983,7.9887479 48.76243,47.613556 49.219079,47.613556 c 0.20929,0 0.345277,0.149295 0.345277,0.379064 0,0.208488 0.229614,0.651948 0.510253,0.985468 0.280641,0.333521 0.468885,0.606403 0.418321,0.606403 -0.05056,0 -0.207723,-0.139517 -0.349244,-0.310038 z m 58.004404,0.174619 c 0.18844,-0.04933 0.54321,-0.05112 0.78838,-0.004 0.24516,0.04714 0.091,0.08751 -0.34262,0.08969 -0.4336,0.0022 -0.6342,-0.03639 -0.44576,-0.08572 z m 33.96432,-1.186461 c -0.10695,-0.280898 -0.0843,-0.303536 0.11034,-0.110333 0.13469,0.133696 0.19525,0.292731 0.13457,0.353414 -0.0607,0.06068 -0.17089,-0.0487 -0.24491,-0.243081 z m -2.69857,-4.541651 c -0.24516,-0.312602 -0.23819,-0.319573 0.0744,-0.07441 0.32831,0.257477 0.43272,0.419329 0.2705,0.419329 -0.0409,0 -0.19613,-0.155211 -0.34491,-0.344914 z m -1.25597,-1.428928 c -0.4234,-0.433605 -0.72548,-0.788374 -0.67128,-0.788374 0.0542,0 0.44497,0.354769 0.86838,0.788374 0.4234,0.433606 0.72548,0.788374 0.67128,0.788374 -0.0542,0 -0.44497,-0.354768 -0.86838,-0.788374 z m -5.61716,-3.744776 c -0.37941,-0.207714 -0.55679,-0.379409 -0.39419,-0.381543 0.1626,-0.0021 0.51737,0.169561 0.78838,0.381543 0.61946,0.484553 0.49087,0.484553 -0.39419,0 z m -2.16803,-0.822705 c -1.39885,-0.526472 -1.637,-0.754042 -0.78911,-0.754042 0.40221,0 0.9686,0.20736 1.41907,0.519538 1.15644,0.801412 1.01562,0.853833 -0.62996,0.234504 z m -4.77952,-1.385272 c -0.94488,-0.250957 -0.9929,-0.748425 -0.0722,-0.748425 0.5548,0 0.68268,0.0828 0.76105,0.492734 0.0518,0.271003 0.0843,0.483567 0.0722,0.472364 -0.0121,-0.0112 -0.35454,-0.108707 -0.76105,-0.216673 z m -5.81015,-1.064596 c 0.0655,-0.06549 0.23549,-0.07249 0.37777,-0.01555 0.15722,0.06292 0.11052,0.10962 -0.11908,0.119076 -0.20777,0.0086 -0.32418,-0.03802 -0.25869,-0.103517 z m -3.10833,-0.362175 -1.97093,-0.225708 1.04444,-0.237801 c 0.57444,-0.130789 1.66092,-0.237799 2.4144,-0.237799 1.32988,0 1.36995,0.01441 1.36995,0.492734 0,0.562154 0.14028,0.551915 -2.85786,0.208574 z M 83.26734,34.523656 c 0,-0.274575 0.424137,-0.308912 3.498409,-0.283229 3.240042,0.02707 3.35285,0.03957 1.527475,0.169268 -1.084014,0.07702 -2.658298,0.204474 -3.498409,0.283229 -1.323111,0.124031 -1.527475,0.101385 -1.527475,-0.169268 z m 29.81039,-0.05944 c 0.2981,-0.04516 0.78591,-0.04516 1.08401,0 0.29811,0.04516 0.0542,0.08211 -0.542,0.08211 -0.59621,0 -0.84012,-0.03695 -0.54201,-0.08211 z m -2.86225,-0.198174 c 0.34988,-0.04354 0.97073,-0.04425 1.37965,-0.0016 0.40892,0.04267 0.12265,0.07829 -0.63616,0.07916 -0.75881,7.88e-4 -1.09338,-0.03403 -0.74349,-0.07757 z M 97.605891,34.063971 c 1.327917,-0.0341 3.500869,-0.0341 4.828789,0 1.32792,0.0341 0.24144,0.062 -2.41439,0.062 -2.655839,0 -3.742317,-0.0279 -2.414399,-0.062 z"
         id="path177" />
      <path
         style="fill:#0df38a;stroke-width:0.197093"
         d="m 2.4297757,200.00056 c 0.5473773,-0.63185 1.6874935,-1.89571 2.5335917,-2.80859 0.8460985,-0.91286 2.1729564,-2.41364 2.9485734,-3.33505 0.7756171,-0.92142 10.3538432,-10.60152 21.2849462,-21.51135 15.60744,-15.57707 20.029016,-19.88474 20.593288,-20.06277 0.825022,-0.2603 2.545924,-1.97712 3.057811,-3.05056 0.185382,-0.38875 0.453672,-0.70682 0.596196,-0.70682 0.16476,0 0.259137,-0.25123 0.259137,-0.68983 0,-0.63508 0.04693,-0.68983 0.59128,-0.68983 0.54207,0 0.591281,0.0563 0.591281,0.67612 0,0.53717 0.08568,0.68906 0.416929,0.7391 0.274161,0.0414 0.628488,0.45137 1.034741,1.1972 1.346726,2.47241 3.546188,4.94296 5.751225,6.46006 3.152971,2.1693 8.298169,3.96152 14.663246,5.10762 1.240437,0.22336 2.304742,0.48157 2.365122,0.57381 0.06038,0.0922 1.517275,0.21784 3.237544,0.27912 1.720269,0.0613 3.216642,0.20029 3.325272,0.30892 0.131954,0.13196 -0.150636,0.37393 -0.851369,0.72902 -1.409642,0.71432 -2.38009,1.35297 -4.024918,2.64877 -0.75881,0.59779 -1.446174,1.065 -1.527475,1.03825 -0.0813,-0.0267 -0.14782,0.0907 -0.14782,0.26107 0,0.17034 -5.528911,5.8688 -12.286472,12.66325 -6.757559,6.79445 -12.571272,12.77502 -12.919363,13.29014 -1.141302,1.68897 -2.841777,5.59493 -3.260437,7.48916 l -0.119791,0.542 H 25.988428 1.4345448 Z M 90.146634,147.3218 c -8.678629,-0.39707 -14.418965,-1.6168 -16.585954,-3.52426 -1.006224,-0.88571 -2.077472,-2.80172 -2.701117,-4.83116 -0.524815,-1.70781 -1.191673,-5.52389 -1.191673,-6.81931 v -0.96588 h 0.689827 c 0.654437,0 0.689828,-0.0347 0.689828,-0.67674 0,-0.59174 0.06807,-0.68456 0.542007,-0.7391 0.418313,-0.0481 0.585042,-0.20854 0.730586,-0.70291 0.113421,-0.38527 0.317261,-0.64056 0.511459,-0.64056 0.362286,0 0.975256,-0.59817 0.975256,-0.95171 0,-0.12697 0.10849,-0.23085 0.241091,-0.23085 0.385448,0 17.300229,-17.00299 17.300229,-17.39044 0,-0.19762 0.149034,-0.35068 0.344913,-0.35424 0.523684,-0.01 1.034741,-0.47954 1.034741,-0.95165 0,-0.3372 0.118522,-0.42174 0.59128,-0.42174 0.525584,0 0.591281,-0.0657 0.591281,-0.59128 0,-0.54435 0.05475,-0.59128 0.689827,-0.59128 0.656978,0 0.689827,-0.0328 0.689827,-0.68982 v -0.68983 l 0.936194,5.9e-4 c 2.023035,0.001 19.758314,0.98704 21.335374,1.18572 4.17489,0.52594 8.05312,1.73884 9.78586,3.06046 1.36534,1.0414 2.49765,3.25783 3.14052,6.14741 0.24363,1.09506 0.27401,1.53154 0.11041,1.58607 -0.12415,0.0414 -0.22572,0.37827 -0.22572,0.74864 0,0.63821 -0.036,0.67341 -0.68983,0.67341 -0.65443,0 -0.68982,0.0347 -0.68982,0.67673 0,0.59175 -0.0681,0.68457 -0.54201,0.7391 -0.41831,0.0481 -0.58504,0.20855 -0.73059,0.70292 -0.11891,0.40394 -0.31483,0.64056 -0.53037,0.64056 -0.18799,0 -0.3904,0.0786 -0.4498,0.17475 -0.0594,0.0961 -0.43745,0.23655 -0.84011,0.31209 -0.40266,0.0755 -1.091,0.31632 -1.52965,0.53506 -0.49834,0.24851 -3.88722,3.4773 -9.0331,8.60638 -6.87542,6.85298 -8.33207,8.40104 -8.81993,9.37344 -0.32141,0.64063 -0.58438,1.37165 -0.58438,1.6245 0,0.26235 -0.25387,0.68594 -0.59128,0.98657 -0.3252,0.28976 -0.59128,0.67122 -0.59128,0.84768 0,0.19191 -0.25743,0.39664 -0.64055,0.50943 -0.48973,0.14417 -0.65498,0.31348 -0.70181,0.71899 -0.0504,0.43639 -0.17266,0.5412 -0.68982,0.59128 -0.52092,0.0504 -0.63927,0.1537 -0.69095,0.60288 -0.0522,0.45393 -0.15631,0.542 -0.64055,0.542 -0.31801,0 -0.57819,0.0887 -0.57819,0.1971 0,0.23009 -5.406018,0.21941 -10.662026,-0.0211 z m 52.840026,-46.9444 c -3.11277,-4.780507 -8.91081,-7.448429 -20.39917,-9.38652 -5.14794,-0.868459 -11.05801,-1.435521 -19.70935,-1.89108 -5.422762,-0.285551 -11.378755,-0.733273 -13.451629,-1.011183 -0.798926,-0.10711 -0.837647,-0.143233 -0.837647,-0.781428 0,-0.630969 -0.03862,-0.669124 -0.677339,-0.669124 -0.620114,0 -0.682559,-0.05412 -0.739101,-0.640554 -0.05431,-0.563238 -0.139077,-0.648008 -0.702315,-0.702315 -0.453068,-0.04368 -0.640554,-0.161944 -0.640554,-0.404042 0,-0.442806 -0.378204,-0.815305 -0.827792,-0.815305 -0.213439,0 -0.354769,-0.144863 -0.354769,-0.363639 0,-0.439562 -0.595882,-1.016015 -1.050259,-1.016015 -0.181167,0 -0.329395,-0.148062 -0.329395,-0.32903 0,-0.446614 -8.662771,-9.131457 -9.108249,-9.131457 -0.210979,0 -0.352238,-0.145831 -0.352238,-0.363639 0,-0.439562 -0.595882,-1.016015 -1.05026,-1.016015 -0.181166,0 -0.332214,-0.155211 -0.335662,-0.344914 -0.0094,-0.518586 -0.477904,-1.03474 -0.939166,-1.03474 -0.317648,0 -0.423069,-0.14337 -0.471006,-0.640554 -0.05493,-0.569723 -0.135817,-0.647624 -0.731471,-0.704489 l -0.66971,-0.06394 0.124914,-2.991014 c 0.306291,-7.333992 2.375176,-11.840879 6.294131,-13.711226 3.284758,-1.567669 9.460083,-2.527605 18.603951,-2.891927 l 3.38295,-0.134786 0.06619,0.467924 c 0.05188,0.366767 0.204665,0.481276 0.706741,0.529686 0.497184,0.04794 0.640554,0.153359 0.640554,0.471007 0,0.461261 0.516155,0.929741 1.034741,0.939166 0.20786,0.0038 0.34491,0.158268 0.34491,0.388822 0,0.210405 0.0887,0.43737 0.19709,0.504366 0.1084,0.067 0.19796,0.316134 0.19902,0.553639 9.9e-4,0.237506 0.2286,0.919635 0.50565,1.515842 0.43144,0.928435 2.81717,3.403552 16.62293,17.24568 8.86556,8.888915 16.38677,16.535624 16.7138,16.992686 0.32704,0.457059 0.63425,0.791379 0.6827,0.74293 0.0485,-0.04845 1.33612,1.17405 2.86149,2.716663 2.22471,2.249856 2.90986,3.077704 3.46315,4.184405 0.71361,1.427373 1.97099,4.79572 1.87412,5.02051 -0.0303,0.0702 -0.45414,-0.48524 -0.94195,-1.2344 z M 53.703319,52.442346 c 0,-0.42097 -0.09615,-0.689827 -0.246706,-0.689827 -0.135687,0 -0.467396,-0.421287 -0.737128,-0.936194 C 51.964639,49.375363 50.599163,48.013632 49.367262,47.473301 48.409544,47.053229 46.002465,44.720192 28.706962,27.448527 17.940004,16.696409 8.655639,7.2783763 8.0750384,6.5195664 7.10246,5.2484648 5.6626738,3.5671016 3.8556579,1.5922295 3.4589072,1.1586238 2.8831365,0.47126034 2.5761675,0.06475505 L 2.0180421,-0.67434549 H 26.378724 50.739407 l 0.119792,0.54200706 c 0.418573,1.89384063 2.11881,5.79948283 3.260245,7.48915713 0.347984,0.5151239 5.401991,5.7354453 11.231125,11.6007153 8.015199,8.064882 10.645291,10.827126 10.790689,11.332875 0.105743,0.367812 0.200259,0.513537 0.210035,0.323835 0.02413,-0.468243 0.06109,-0.455253 1.237122,0.434853 0.566636,0.428872 1.76388,1.204927 2.660541,1.724568 1.773764,1.027947 2.044129,1.437535 0.948903,1.437535 -0.596196,0 -0.689828,0.06402 -0.689828,0.471647 0,0.646092 -0.328767,0.738925 -3.046629,0.860267 -1.882671,0.08405 -2.417953,0.17307 -2.660762,0.442475 -0.167179,0.185489 -1.057842,0.535401 -1.979254,0.777581 -3.480354,0.914764 -7.587177,2.700149 -9.781172,4.252233 -1.500737,1.061656 -3.736419,3.394862 -4.858731,5.070679 -0.773302,1.154682 -1.131935,1.527474 -1.469458,1.527474 -0.403608,0 -0.446491,0.09342 -0.446491,0.972637 0,0.534951 -0.09003,1.209421 -0.200056,1.498825 -0.164959,0.433873 -0.285981,0.50462 -0.689827,0.403261 -0.486789,-0.122176 -0.489771,-0.114502 -0.489771,1.260486 v 1.383409 h -0.591281 c -0.544352,0 -0.59128,-0.05475 -0.59128,-0.689828 z"
         id="path175" />
      <path
         style="fill:#44b46d;stroke-width:0.197093"
         d="m 50.662105,200.60737 c 0.41866,-1.89423 2.119135,-5.80019 3.260437,-7.48916 0.348091,-0.51512 6.161804,-6.49569 12.919363,-13.29014 6.757561,-6.79445 12.286472,-12.49291 12.286472,-12.66325 0,-0.17034 0.06652,-0.28782 0.14782,-0.26107 0.0813,0.0267 0.768665,-0.44046 1.527475,-1.03825 1.35577,-1.06808 2.523512,-1.87051 3.399862,-2.33626 0.420702,-0.22359 0.44346,-0.19992 0.44346,0.46108 0,0.66246 -0.03335,0.69676 -0.677339,0.69676 -0.620113,0 -0.682558,0.0541 -0.7391,0.64056 -0.05431,0.56323 -0.139077,0.648 -0.702315,0.70231 -0.459881,0.0443 -0.640554,0.16081 -0.640554,0.41291 0,0.429 -0.601283,1.00353 -1.05026,1.00353 -0.190838,0 -0.329395,0.15566 -0.329395,0.37005 0,0.38852 -0.348461,0.75365 -1.05576,1.10628 -0.232342,0.11583 -0.422441,0.31567 -0.422441,0.44409 0,0.12842 -5.27643,5.51478 -11.725402,11.9697 -7.975995,7.98334 -11.917744,12.06642 -12.326904,12.76886 -0.330825,0.56796 -1.213059,2.38521 -1.960522,4.03833 -1.287768,2.84808 -1.388274,3.00567 -1.916857,3.00567 -0.506189,0 -0.546743,-0.0502 -0.43804,-0.542 z m 34.198407,-37.37179 c 0.04517,-0.0395 0.28168,-0.17568 0.525583,-0.30258 0.367502,-0.1912 0.44346,-0.1789 0.44346,0.0719 0,0.1964 -0.18444,0.30258 -0.525583,0.30258 -0.289069,0 -0.488626,-0.0323 -0.44346,-0.0719 z m -5.732135,-1.30781 c 0,-0.22562 0.280947,-0.22562 0.985468,0 0.439745,0.14083 0.413249,0.15992 -0.246367,0.17745 -0.406506,0.0108 -0.739101,-0.0691 -0.739101,-0.17745 z m -29.564021,-9.76908 c 0,-0.40519 0.479443,-0.87397 0.893854,-0.87397 0.423804,0 0.4858,-0.088 0.4858,-0.68982 0,-0.65698 0.03285,-0.68983 0.689827,-0.68983 0.656978,0 0.689827,-0.0328 0.689827,-0.68983 0,-0.55843 0.07508,-0.68982 0.394187,-0.68982 0.216803,0 0.394187,0.0713 0.394187,0.1585 0,0.36881 -1.187029,1.97355 -2.033157,2.74863 -0.796468,0.72958 -1.514525,1.07385 -1.514525,0.72614 z m 5.764984,-3.57528 c -0.357104,-0.0688 -0.44346,-0.21707 -0.44346,-0.76153 0,-0.37186 0.03508,-0.67612 0.07795,-0.67612 0.04287,0 0.253474,0.35477 0.468006,0.78838 0.214531,0.4336 0.379011,0.77629 0.36551,0.76153 -0.0135,-0.0148 -0.224103,-0.0653 -0.468006,-0.11226 z m 37.648959,-1.16254 c 0.06549,-0.0655 0.235486,-0.0725 0.377763,-0.0156 0.157228,0.0629 0.110527,0.10962 -0.119077,0.11908 -0.207769,0.009 -0.324178,-0.038 -0.258686,-0.10352 z m 11.969321,-3.72424 c 0.13495,-0.16261 0.28971,-0.29564 0.34391,-0.29564 0.0542,0 -0.0119,0.13303 -0.14681,0.29564 -0.13495,0.1626 -0.28971,0.29564 -0.34391,0.29564 -0.0542,0 0.0119,-0.13304 0.14681,-0.29564 z m 0.91415,-1.13329 c 0.0637,-0.35231 0.3318,-1.12836 0.59567,-1.72457 0.4107,-0.92799 1.66032,-2.26638 8.68229,-9.29902 8.10683,-8.11914 9.10552,-8.99471 10.62512,-9.31526 0.57729,-0.12177 0.60924,-0.0988 0.51903,0.37305 -0.0556,0.29094 -0.22979,0.50282 -0.41333,0.50282 -0.36248,0 -18.30752,17.85161 -18.47478,18.37859 -0.0603,0.18991 -0.2229,0.34529 -0.3614,0.34529 -0.34564,0 -0.90419,0.64878 -0.90419,1.05026 0,0.18116 -0.0865,0.32939 -0.19216,0.32939 -0.10919,0 -0.14212,-0.2766 -0.0762,-0.64055 z m 38.65237,-39.44251 c -0.29811,-0.63641 -0.54201,-1.27236 -0.54201,-1.41323 0,-0.46763 -1.21739,-3.715652 -1.91764,-5.116315 -0.55329,-1.106701 -1.23844,-1.934549 -3.46315,-4.184405 -1.52537,-1.542613 -2.81304,-2.765111 -2.86149,-2.716663 -0.0485,0.04845 -0.35566,-0.285871 -0.6827,-0.74293 -0.32703,-0.457062 -7.84824,-8.103771 -16.7138,-16.992686 -13.80576,-13.842128 -16.19149,-16.317245 -16.62293,-17.24568 -0.61833,-1.330655 -0.65196,-1.774696 -0.12394,-1.636617 0.21099,0.05518 0.41055,0.223832 0.44346,0.374786 0.0329,0.150953 7.62083,7.839026 16.86205,17.084602 9.24122,9.245578 16.80221,16.962216 16.80221,17.148085 0,0.197083 0.15157,0.337942 0.36364,0.337942 0.43957,0 1.01602,0.595883 1.01602,1.05026 0,0.188776 0.15524,0.329394 0.36364,0.329394 0.43956,0 1.01601,0.595883 1.01601,1.05026 0,0.185798 0.15466,0.329395 0.35477,0.329395 0.48574,0 0.82779,0.382777 0.82779,0.926339 0,0.341628 0.11169,0.453315 0.45332,0.453315 0.54356,0 0.92634,0.342058 0.92634,0.827793 0,0.213438 0.14486,0.354768 0.36364,0.354768 0.43956,0 1.01601,0.595882 1.01601,1.05026 0,0.181166 0.11991,0.329394 0.26647,0.329394 0.42808,0 2.08739,3.881364 2.88586,6.750453 0.36203,1.30087 0.36204,1.33038 5.9e-4,1.33038 -0.28498,0 -0.38376,0.16943 -0.4309,0.7391 l -0.0613,0.7391 z M 81.887686,81.020901 c 0,-0.162603 0.03486,-0.295641 0.07746,-0.295641 0.0426,0 0.12851,0.133038 0.190908,0.295641 0.0624,0.162602 0.02754,0.29564 -0.07746,0.29564 -0.104999,0 -0.190908,-0.133038 -0.190908,-0.29564 z M 75.35846,74.270449 c -0.245159,-0.312602 -0.238188,-0.319573 0.07441,-0.07442 0.189703,0.148776 0.344914,0.303987 0.344914,0.344914 0,0.162216 -0.161851,0.05781 -0.419328,-0.270499 z M 52.323664,51.07518 c 0,-0.620113 -0.05412,-0.682558 -0.640553,-0.739101 -0.560402,-0.05403 -0.64817,-0.140415 -0.701423,-0.690341 -0.05008,-0.51716 -0.154888,-0.639438 -0.59128,-0.689827 -0.405516,-0.04683 -0.574817,-0.212079 -0.718991,-0.701801 -0.115355,-0.391836 -0.31644,-0.640554 -0.517873,-0.640554 -0.181113,0 -0.441645,-0.135371 -0.578958,-0.300825 -0.543663,-0.655072 1.698269,0.539204 2.528867,1.347128 0.733292,0.713273 2.008585,2.598247 2.008585,2.968832 0,0.06811 -0.177384,0.123828 -0.394187,0.123828 -0.317718,0 -0.394187,-0.131396 -0.394187,-0.677339 z M 54.88588,51.0416 c 0,-0.567286 0.06298,-0.686745 0.31176,-0.59128 0.171467,0.0658 0.385493,0.119633 0.475612,0.119633 0.09012,0 0.06342,0.266077 -0.05933,0.591281 -0.312817,0.828744 -0.728043,0.760513 -0.728043,-0.119634 z m 1.379654,-2.738222 c 0,-0.55843 0.07508,-0.689827 0.394187,-0.689827 0.473271,0 0.479357,0.05197 0.09349,0.798162 -0.390347,0.754848 -0.487672,0.733227 -0.487672,-0.108335 z M 74.807219,36.038826 c 0.14726,-0.192184 0.292843,-0.38638 0.323517,-0.431548 0.03067,-0.04517 0.05577,0.05621 0.05577,0.22528 0,0.169073 -0.145583,0.363269 -0.323518,0.431548 -0.281654,0.108082 -0.288872,0.07893 -0.05577,-0.22528 z m 5.700812,-1.317568 c 0,-0.500105 0.02692,-0.510058 1.379655,-0.510058 1.060666,0 1.379654,0.06473 1.379654,0.279979 0,0.276459 -0.280409,0.366012 -1.921661,0.613716 -0.80225,0.121078 -0.837648,0.104865 -0.837648,-0.383637 z M 80.07187,32.679736 c -0.836097,-0.512713 -1.944747,-1.242627 -2.463669,-1.622032 -1.203746,-0.880109 -1.235662,-0.891787 -1.256908,-0.459884 -0.0098,0.198735 -0.104292,0.0604 -0.210035,-0.307411 C 75.99586,29.78466 73.365768,27.022416 65.350569,18.957534 59.521435,13.092264 54.467428,7.8719426 54.119444,7.3568187 52.978009,5.6671444 51.277772,1.7615022 50.859199,-0.13233843 c -0.108845,-0.4924766 -0.06848,-0.54200706 0.441694,-0.54200706 0.533676,0 0.627364,0.14728869 1.891453,2.97360149 0.731481,1.6354809 1.611996,3.4525996 1.956699,4.0380415 0.427911,0.7267593 3.924482,4.3658035 11.021926,11.4710285 5.717355,5.723624 10.395191,10.55841 10.395191,10.743969 0,0.193489 0.151307,0.337381 0.354768,0.337381 0.485735,0 0.827793,0.382777 0.827793,0.926339 0,0.386678 0.101402,0.453315 0.689827,0.453315 0.635079,0 0.689827,0.04693 0.689827,0.591281 0,0.544352 0.05475,0.59128 0.689827,0.59128 0.656978,0 0.689827,0.03285 0.689827,0.689827 0,0.656978 0.03285,0.689828 0.689828,0.689828 0.55843,0 0.689827,0.07508 0.689827,0.394186 0,0.216803 -0.06652,0.392392 -0.14782,0.390198 -0.0813,-0.0022 -0.831898,-0.423481 -1.667996,-0.936194 z"
         id="path173" />
      <path
         style="fill:#4800c8;stroke-width:0.197093"
         d="m 96.078416,201.04428 c 0,-0.0578 0.234707,-0.56778 0.521573,-1.13328 0.286863,-0.56552 0.982499,-2.05458 1.545857,-3.30905 0.563356,-1.25446 1.260909,-2.62919 1.550114,-3.05494 0.289208,-0.42576 6.06809,-6.31894 12.84197,-13.09597 6.80751,-6.81068 12.31613,-12.47455 12.31613,-12.66325 0,-0.20044 0.15014,-0.3414 0.36364,-0.3414 0.43956,0 1.01602,-0.59588 1.01602,-1.05026 0,-0.18878 0.15524,-0.32939 0.36364,-0.32939 0.43956,0 1.01601,-0.59589 1.01601,-1.05026 0,-0.18878 0.15524,-0.3294 0.36364,-0.3294 0.43956,0 1.01602,-0.59588 1.01602,-1.05026 0,-0.18877 0.15524,-0.32939 0.36364,-0.32939 0.39556,0 1.01601,-0.58118 1.01601,-0.95172 0,-0.12696 0.11758,-0.23084 0.26129,-0.23084 0.29262,0 1.11837,-0.81062 1.11837,-1.09788 0,-0.10205 0.26607,-0.30333 0.59128,-0.44728 0.42161,-0.18663 0.59128,-0.39837 0.59128,-0.73794 0,-0.36552 0.10536,-0.47621 0.45331,-0.47621 0.57761,0 0.92634,-0.34873 0.92634,-0.92634 0,-0.37059 0.10611,-0.45332 0.58149,-0.45332 0.31982,0 0.65241,-0.11419 0.7391,-0.25376 0.0867,-0.13957 0.86715,-0.69143 1.73436,-1.22636 0.86721,-0.53492 2.17541,-1.57066 2.9071,-2.30163 1.27805,-1.27678 3.30214,-4.11943 3.58372,-5.033 0.0743,-0.24106 0.37375,-0.55214 0.66546,-0.69129 0.35055,-0.16722 0.55151,-0.43626 0.59273,-0.79355 0.0483,-0.41828 0.16712,-0.54055 0.52549,-0.54055 0.32502,0 0.54116,-0.17631 0.72484,-0.59128 0.14395,-0.3252 0.35937,-0.59128 0.47871,-0.59128 0.31672,0 0.86936,-0.66764 0.86936,-1.05026 0,-0.18877 0.15524,-0.32939 0.36364,-0.32939 0.43956,0 1.01601,-0.59589 1.01601,-1.05026 0,-0.18878 0.15524,-0.3294 0.36364,-0.3294 0.43956,0 1.01602,-0.59588 1.01602,-1.05026 0,-0.18877 0.15523,-0.32939 0.36364,-0.32939 0.43956,0 1.01601,-0.59588 1.01601,-1.05026 0,-0.18878 0.15524,-0.3294 0.36364,-0.3294 0.43956,0 1.01601,-0.59588 1.01601,-1.05026 0,-0.18116 0.15301,-0.32939 0.34003,-0.32939 0.4383,0 33.22751,-32.75594 33.83586,-33.80153 0.90446,-1.55454 1.19818,-2.81075 1.19818,-5.12443 0,-2.314205 -0.29399,-3.5711 -1.19863,-5.124433 -0.61254,-1.051769 -34.77257,-35.181185 -35.21275,-35.181185 -0.20136,0 -0.34234,-0.149752 -0.34234,-0.36364 0,-0.439561 -0.59588,-1.016015 -1.05026,-1.016015 -0.18878,0 -0.32939,-0.155238 -0.32939,-0.363639 0,-0.439562 -0.59589,-1.016015 -1.05026,-1.016015 -0.18878,0 -0.3294,-0.155239 -0.3294,-0.363639 0,-0.422263 -0.58994,-1.016015 -1.0095,-1.016015 -0.15875,0 -0.3735,-0.288249 -0.47721,-0.640554 -0.12986,-0.441077 -0.32668,-0.660167 -0.63204,-0.703535 -0.26478,-0.0376 -0.44346,-0.200407 -0.44346,-0.404042 0,-0.473026 -0.38809,-0.814084 -0.92634,-0.814084 -0.38668,0 -0.45332,-0.101403 -0.45332,-0.689828 0,-0.656977 -0.0328,-0.689827 -0.68983,-0.689827 -0.65697,0 -0.68982,-0.03285 -0.68982,-0.689827 0,-0.548513 -0.0774,-0.689827 -0.37789,-0.689827 -0.27216,0 -0.47207,-0.26192 -0.71455,-0.936194 -0.96915,-2.695011 -2.74437,-5.511459 -4.62753,-7.341732 -1.19629,-1.162694 -5.39288,-3.933032 -5.97957,-3.947353 -0.12354,-0.003 -0.57301,-0.269091 -0.99883,-0.59128 -0.49789,-0.376727 -1.00788,-0.585797 -1.42893,-0.585797 -0.61685,0 -0.65471,-0.0399 -0.65471,-0.689828 0,-0.654555 -0.0346,-0.689827 -0.67734,-0.689827 -0.62012,0 -0.68256,-0.05412 -0.7391,-0.640554 -0.054,-0.560401 -0.14042,-0.648169 -0.69034,-0.701422 -0.51716,-0.05008 -0.63944,-0.154888 -0.68983,-0.59128 -0.0468,-0.405516 -0.21208,-0.574817 -0.7018,-0.718991 -0.38527,-0.113422 -0.64056,-0.317262 -0.64056,-0.51146 0,-0.362285 -0.59817,-0.975256 -0.95171,-0.975256 -0.12697,0 -0.23085,-0.119293 -0.23085,-0.265093 0,-0.356707 -0.64192,-0.917468 -1.05026,-0.917468 -0.18877,0 -0.32939,-0.155238 -0.32939,-0.363639 0,-0.439562 -0.59588,-1.016015 -1.05026,-1.016015 -0.18878,0 -0.3294,-0.155239 -0.3294,-0.363639 0,-0.439562 -0.59588,-1.016015 -1.05026,-1.016015 -0.18259,0 -0.32939,-0.154062 -0.32939,-0.345685 0,-0.193536 -4.17022,-4.509224 -9.47488,-9.805399 C 104.84647,12.156093 100.31392,7.5150118 99.985309,7.0454234 99.529921,6.394658 97.295096,1.8149323 96.33842,-0.42797864 96.2545,-0.62472015 106.85741,-0.67434549 148.97693,-0.67434549 h 52.74359 V 100.23751 201.14937 h -52.82105 c -29.05158,0 -52.821054,-0.0473 -52.821054,-0.10509 z"
         id="path171" />
      <path
         style="fill:#ab0156;stroke-width:0.197093"
         d="m 95.290042,200.88629 c 0,-0.98326 2.181679,-5.98175 3.471538,-7.95371 0.458047,-0.70028 5.55692,-5.97459 13.12512,-13.57673 7.40045,-7.43363 12.38234,-12.58415 12.39164,-12.81107 0.01,-0.24131 0.0541,-0.28274 0.12143,-0.11378 0.10687,0.26827 7.18275,-6.51513 7.31545,-7.01307 0.0599,-0.22481 1.2161,-0.82248 2.18755,-1.1308 0.3173,-0.10071 0.41178,-0.0462 0.41178,0.23735 0,0.49807 -0.37778,0.84108 -0.92634,0.84108 -0.34795,0 -0.45331,0.11069 -0.45331,0.47621 0,0.33957 -0.16967,0.55131 -0.59128,0.73794 -0.32521,0.14395 -0.59128,0.35765 -0.59128,0.4749 0,0.27973 -0.84647,1.07026 -1.14599,1.07026 -0.12852,0 -0.23367,0.11929 -0.23367,0.26509 0,0.35671 -0.64192,0.91747 -1.05026,0.91747 -0.18877,0 -0.32939,0.15524 -0.32939,0.36364 0,0.43956 -0.59589,1.01601 -1.05026,1.01601 -0.18878,0 -0.3294,0.15524 -0.3294,0.36364 0,0.43956 -0.59588,1.01602 -1.05026,1.01602 -0.18877,0 -0.32939,0.15523 -0.32939,0.36364 0,0.43956 -0.59588,1.01601 -1.05026,1.01601 -0.18117,0 -0.3294,0.15363 -0.3294,0.3414 0,0.1887 -5.50862,5.85257 -12.31613,12.66325 -6.77388,6.77703 -12.547011,12.66174 -12.829188,13.07716 -0.282177,0.41541 -1.067801,1.96752 -1.745832,3.44914 -1.852338,4.04767 -1.921352,4.17203 -2.315185,4.17203 -0.196726,0 -0.357683,-0.11839 -0.357683,-0.26308 z m -16.161665,-31.6428 c 0,-0.1084 0.08869,-0.2519 0.197094,-0.3189 0.108401,-0.067 0.197093,-0.0331 0.197093,0.0753 0,0.10841 -0.08869,0.25191 -0.197093,0.31891 -0.108402,0.067 -0.197094,0.0331 -0.197094,-0.0753 z m 15.714454,-6.45953 c 0.133438,-0.054 0.399515,-0.0573 0.591281,-0.007 0.191766,0.05 0.08259,0.0941 -0.242617,0.0982 -0.325204,0.004 -0.482102,-0.0369 -0.348664,-0.0909 z m 5.421519,-0.006 c 0.18844,-0.0493 0.54321,-0.0511 0.78838,-0.004 0.24516,0.0471 0.091,0.0875 -0.34262,0.0897 -0.4336,0.002 -0.63419,-0.0364 -0.44576,-0.0857 z m 44.24021,-14.94224 c 0.18092,-0.37941 0.40122,-0.68983 0.48954,-0.68983 0.0883,0 0.16059,-0.21286 0.16059,-0.47302 0,-0.27969 0.28796,-0.76099 0.70455,-1.17757 0.43679,-0.43679 0.64949,-0.80007 0.55968,-0.9559 -0.0797,-0.13825 -0.0682,-0.18157 0.0254,-0.0963 0.22079,0.20111 38.9484,-38.50414 39.69526,-39.67235 0.80221,-1.25476 1.19311,-2.77225 1.19311,-4.63169 0,-1.859116 -0.39082,-3.376633 -1.19284,-4.631699 -0.31172,-0.487806 -8.35388,-8.669649 -17.87147,-18.181873 -13.19278,-13.185341 -17.42117,-17.300385 -17.79481,-17.317816 -0.35355,-0.0165 -0.39077,-0.0486 -0.13357,-0.115236 0.27996,-0.07253 -0.14408,-0.607387 -1.97414,-2.490079 -2.45969,-2.530428 -4.59083,-5.048891 -4.59083,-5.425177 0,-0.125257 0.30507,-0.224571 0.68982,-0.224571 0.65698,0 0.68983,0.03285 0.68983,0.689827 0,0.588425 0.0666,0.689828 0.45332,0.689828 0.53825,0 0.92634,0.341058 0.92634,0.814084 0,0.203635 0.17868,0.366439 0.44346,0.404042 0.30536,0.04337 0.50218,0.262458 0.63204,0.703535 0.11342,0.385263 0.31726,0.640554 0.51146,0.640554 0.40515,0 0.97525,0.613948 0.97525,1.05026 0,0.188776 0.15524,0.329394 0.36364,0.329394 0.43956,0 1.01602,0.595883 1.01602,1.05026 0,0.188776 0.15523,0.329394 0.36364,0.329394 0.43956,0 1.01601,0.595883 1.01601,1.05026 0,0.181372 0.15384,0.329395 0.34234,0.329395 0.44018,0 34.60021,34.129416 35.21275,35.181185 0.90464,1.553333 1.19863,2.810228 1.19863,5.124433 0,2.31368 -0.29372,3.56989 -1.19818,5.12443 -0.60835,1.04559 -33.39756,33.80153 -33.83586,33.80153 -0.19911,0 -0.34003,0.1507 -0.34003,0.36364 0,0.43956 -0.59588,1.01601 -1.05026,1.01601 -0.18877,0 -0.32939,0.15524 -0.32939,0.36364 0,0.43956 -0.59588,1.01602 -1.05026,1.01602 -0.18878,0 -0.32939,0.15524 -0.32939,0.36364 0,0.43956 -0.59589,1.01601 -1.05026,1.01601 -0.18878,0 -0.3294,0.15524 -0.3294,0.36364 0,0.43956 -0.59588,1.01602 -1.05026,1.01602 -0.18877,0 -0.32939,0.15524 -0.32939,0.36364 0,0.37112 -0.57355,1.01601 -0.9036,1.01601 -0.10051,0 -0.30052,0.26608 -0.44447,0.59128 -0.18662,0.42162 -0.39836,0.59128 -0.73793,0.59128 -0.36553,0 -0.47622,0.10537 -0.47622,0.45332 0,0.50002 -0.33414,0.92634 -0.72606,0.92634 -0.19151,0 -0.17306,-0.1677 0.0759,-0.68983 z m -43.07542,-0.63197 c 0.30533,-0.0469 0.56299,-0.23716 0.62086,-0.45845 0.0544,-0.20806 0.33536,-0.48602 0.62434,-0.61768 0.50783,-0.23138 3.45134,-3.02867 3.46023,-3.28833 0.009,-0.27696 0.7376,-1.06259 0.91908,-0.99167 0.4193,0.16385 -0.19069,1.39414 -1.27216,2.56584 -1.69266,1.83387 -3.273,2.93638 -4.15687,2.89999 -0.56208,-0.0231 -0.60441,-0.0469 -0.19548,-0.1097 z m 23.70184,-23.68288 c 0.2065,-0.23121 0.52875,-0.42038 0.71611,-0.42038 0.18736,0 0.38684,-0.17663 0.4433,-0.39252 0.0564,-0.21588 0.36472,-0.54292 0.68503,-0.72675 0.32032,-0.18384 0.78371,-0.62805 1.02977,-0.98715 0.24605,-0.35909 0.56897,-0.65289 0.7176,-0.65289 0.14863,0 0.27024,-0.17013 0.27024,-0.37807 0,-0.68126 0.23129,-1.00159 0.72321,-1.00159 h 0.48395 l -0.53708,0.9868 c -0.88096,1.6186 -2.93601,3.40937 -4.41486,3.84709 -0.4905,0.14518 -0.49103,0.14394 -0.11727,-0.27454 z m 5.25726,-5.62694 c -0.009,-0.20776 0.038,-0.32417 0.10352,-0.25868 0.0655,0.0655 0.0725,0.23549 0.0155,0.37776 -0.0629,0.15723 -0.10962,0.11053 -0.11908,-0.11908 z m 4.09826,-31.600649 c -0.24516,-0.312602 -0.23818,-0.319573 0.0744,-0.07441 0.32831,0.257477 0.43271,0.419329 0.2705,0.419329 -0.0409,0 -0.19614,-0.155211 -0.34492,-0.344914 z M 102.3185,53.95551 c -0.18,-0.198903 -0.32728,-0.421177 -0.32728,-0.493942 0,-0.07276 -0.15521,-0.29812 -0.34491,-0.500787 -1.722529,-1.840254 -2.445904,-2.537027 -2.926329,-2.818714 -0.735155,-0.431044 -0.826076,-0.754669 -0.212019,-0.754669 0.563993,0 2.144678,1.183179 3.053238,2.285411 0.54795,0.664759 1.32457,2.404357 1.15091,2.57801 -0.0365,0.03648 -0.2136,-0.09641 -0.39361,-0.295309 z m 25.88615,-17.408693 c -0.42786,-0.356525 -0.50112,-0.36862 -0.55648,-0.09187 -0.0477,0.238553 -0.19643,0.287041 -0.59128,0.192791 -0.74001,-0.176635 -0.82317,-0.243304 -0.82317,-0.659878 0,-0.202459 0.14973,-0.396941 0.33275,-0.432185 0.22982,-0.04426 -0.24262,-0.561277 -1.52748,-1.671583 C 122.55328,31.736076 100.30789,9.3788955 99.267144,7.9827314 97.947132,6.2119313 95.487136,0.74709992 95.487136,-0.41447798 c 0,-0.14292713 0.162677,-0.25986751 0.361503,-0.25986751 0.263279,0 0.592506,0.4953561 1.211689,1.82311469 0.4676,1.002713 1.289082,2.7543813 1.825513,3.8925961 l 0.975327,2.0694815 9.835682,9.8591032 c 5.40963,5.422506 9.83569,10.01232 9.83569,10.199587 0,0.199555 0.15051,0.340485 0.36364,0.340485 0.43956,0 1.01601,0.595882 1.01601,1.05026 0,0.188776 0.15524,0.329394 0.36364,0.329394 0.43957,0 1.01602,0.595883 1.01602,1.05026 0,0.188776 0.15524,0.329394 0.36364,0.329394 0.39556,0 1.01601,0.581182 1.01601,0.951713 0,0.126966 0.1193,0.230848 0.2651,0.230848 0.34048,0 0.91746,0.63486 0.91746,1.009501 0,0.158751 0.28825,0.373498 0.64056,0.477215 0.48972,0.144174 0.65497,0.313475 0.7018,0.718991 0.0504,0.436392 0.17267,0.541203 0.68983,0.59128 0.54992,0.05325 0.6363,0.141021 0.69034,0.701422 0.0565,0.586436 0.11898,0.640554 0.7391,0.640554 0.6427,0 0.67734,0.03527 0.67734,0.689827 0,0.794853 -0.1095,0.831818 -0.78838,0.266136 z"
         id="path169" />
      <path
         style="fill:#e00118;stroke-width:0.197093"
         d="m 51.792744,200.88217 c 0.415341,-1.08235 2.700486,-5.94282 3.188158,-6.78115 0.414482,-0.71251 4.502701,-4.93816 13.065185,-13.50439 6.890534,-6.89355 12.461944,-12.62004 12.461944,-12.80882 0,-0.20046 0.150129,-0.34142 0.36364,-0.34142 0.434386,0 1.016015,-0.59409 1.016015,-1.03777 0,-0.21347 0.209071,-0.33707 0.640554,-0.37867 0.563238,-0.0543 0.648007,-0.13908 0.702315,-0.70231 0.05654,-0.58644 0.118987,-0.64056 0.7391,-0.64056 0.642706,0 0.677339,-0.0353 0.677339,-0.68983 0,-0.63507 0.04693,-0.68982 0.591281,-0.68982 0.459884,0 0.59128,-0.0876 0.59128,-0.39419 0,-0.47052 -0.580235,-0.45421 6.444011,-0.18116 10.252464,0.39854 23.621044,-0.32156 31.397934,-1.69127 0.92141,-0.16228 2.18528,-0.29518 2.80858,-0.29533 0.79802,-1.9e-4 1.13329,-0.076 1.13329,-0.25634 0,-0.15524 0.65128,-0.42689 1.6538,-0.68983 1.69665,-0.44499 2.57019,-0.54695 2.44988,-0.28593 -0.0375,0.0813 -1.67537,1.73081 -3.63977,3.66558 -2.30125,2.26652 -3.60931,3.42325 -3.67751,3.25204 -0.0673,-0.16896 -0.11153,-0.12753 -0.12143,0.11378 -0.009,0.22692 -4.99119,5.37744 -12.39164,12.81107 -7.81509,7.85014 -12.661415,12.8674 -13.150317,13.61415 -0.95814,1.46346 -2.91652,5.75106 -3.263343,7.14463 l -0.257519,1.03474 H 73.452865 c -18.23397,0 -21.74603,-0.0433 -21.660121,-0.2672 z m 51.676676,-54.36458 c 1.8775,-1.39797 3.40987,-3.17502 3.67441,-4.26111 0.20961,-0.8606 0.81665,-1.51992 8.72139,-9.47257 6.4463,-6.48537 8.71009,-8.64385 9.38303,-8.94655 1.1411,-0.51328 2.44765,-1.40912 3.19423,-2.19013 0.76408,-0.79932 1.84477,-2.64881 2.04372,-3.49764 l 0.15619,-0.6664 0.15441,0.78838 c 0.31796,1.62337 0.41896,7.88799 0.18113,11.23433 -0.63448,8.92714 -2.36817,13.42632 -5.80587,15.06698 -3.19867,1.52658 -9.57765,2.46145 -18.4506,2.704 l -4.4346,0.12123 z m 41.88814,-0.5829 c -0.0163,-0.3582 0.82183,-2.7308 0.96465,-2.7308 0.0914,0 0.212,-0.55432 0.26795,-1.23183 0.056,-0.67751 0.28474,-2.22148 0.5084,-3.43104 0.22366,-1.20957 0.51781,-3.20514 0.65366,-4.43461 0.33952,-3.07266 0.33857,-14.73369 -0.001,-17.80578 -0.39194,-3.54119 -1.14152,-7.36367 -1.91043,-9.74213 -0.79529,-2.45989 -0.90035,-3.75877 -0.30409,-3.75877 0.37632,0 0.37648,-0.0185 0.0114,-1.33038 -0.79847,-2.869089 -2.45778,-6.750453 -2.88586,-6.750453 -0.14656,0 -0.26647,-0.163639 -0.26647,-0.363639 0,-0.439562 -0.59588,-1.016015 -1.05026,-1.016015 -0.18579,0 -0.32939,-0.154657 -0.32939,-0.354768 0,-0.485735 -0.38278,-0.827793 -0.92634,-0.827793 -0.34163,0 -0.45332,-0.111687 -0.45332,-0.453315 0,-0.543562 -0.34205,-0.926339 -0.82779,-0.926339 -0.21344,0 -0.35477,-0.144864 -0.35477,-0.36364 0,-0.439562 -0.59588,-1.016015 -1.05026,-1.016015 -0.18877,0 -0.32939,-0.155238 -0.32939,-0.363639 0,-0.398557 -0.58214,-1.016015 -0.9579,-1.016015 -0.13037,0 -0.2901,-0.155211 -0.35497,-0.344914 -0.0649,-0.189702 -7.50282,-7.750701 -16.5288,-16.802218 -15.2063,-15.248941 -16.43461,-16.530122 -16.72931,-17.449017 -0.37147,-1.158265 -1.17189,-2.190862 -2.531022,-3.265196 l -0.972828,-0.768976 3.51611,0.002 c 6.44334,0.0035 12.96201,0.558329 16.32718,1.389679 4.93671,1.219591 6.77215,2.882143 8.05,7.291725 0.82092,2.832851 1.50091,8.630245 1.50709,12.849153 l 0.002,1.330381 h 8.79164 8.79164 l -0.13602,-3.301316 c -0.0748,-1.815724 -0.22451,-4.276928 -0.33265,-5.469344 -0.10815,-1.192415 -0.24363,-3.43189 -0.30107,-4.97661 -0.0905,-2.434893 -0.14764,-2.808582 -0.42922,-2.808582 -0.24535,0 -0.41243,-0.389932 -0.68314,-1.594364 -0.1971,-0.876901 -0.32099,-1.631735 -0.27531,-1.677408 0.0457,-0.04567 0.5164,0.468553 1.04606,1.142729 0.52967,0.674174 2.05517,2.35302 3.39001,3.730766 1.89253,1.953362 2.34912,2.525209 2.07339,2.5968 -0.2516,0.06533 -0.21223,0.0984 0.1365,0.11467 0.37365,0.01742 4.60203,4.132475 17.79481,17.317816 9.51759,9.512224 17.55975,17.694067 17.87147,18.181873 0.80202,1.255066 1.19284,2.772583 1.19284,4.631694 0,1.85944 -0.3909,3.37694 -1.19311,4.6317 -0.74686,1.16821 -39.47447,39.87345 -39.69526,39.67234 -0.0936,-0.0853 -0.10913,-0.0485 -0.0344,0.0817 0.0762,0.13287 -0.12366,0.52222 -0.45535,0.88693 -0.32519,0.35754 -0.59385,0.59291 -0.59703,0.52302 z M 127.68139,36.666368 c -0.18602,-0.484738 0.035,-0.52594 0.54462,-0.101531 l 0.47138,0.392557 -0.44965,0.0066 c -0.24731,0.0036 -0.50217,-0.130306 -0.56635,-0.297583 z m -7.11411,-1.326221 c -0.91836,-0.176548 -1.03474,-0.254181 -1.03474,-0.690284 v -0.491364 l -2.02021,0.138509 c -2.71982,0.186478 -2.27914,0.189727 -8.72138,-0.06429 -3.70386,-0.146047 -9.444588,-0.178743 -16.30949,-0.09289 L 81.887686,34.272313 V 33.55193 c 0,-0.691899 -0.02728,-0.720382 -0.689827,-0.720382 -0.656978,0 -0.689828,-0.03285 -0.689828,-0.689828 0,-0.656977 -0.03285,-0.689827 -0.689827,-0.689827 -0.635078,0 -0.689827,-0.04693 -0.689827,-0.59128 0,-0.542175 -0.0562,-0.591281 -0.676736,-0.591281 -0.591259,0 -0.684612,-0.06827 -0.739101,-0.54055 -0.04161,-0.360675 -0.242726,-0.626598 -0.604371,-0.79913 -0.298104,-0.142216 -0.542007,-0.364918 -0.542007,-0.494893 0,-0.129974 -4.661692,-4.892333 -10.359318,-10.58302 -7.246833,-7.23801 -10.5504,-10.672398 -10.995299,-11.4307173 -0.511154,-0.871247 -2.785759,-5.69210453 -3.221708,-6.82816864 -0.08591,-0.22387184 3.424799,-0.26719655 21.651588,-0.26719655 h 21.754121 l 0.342419,1.30554634 c 0.18833,0.71805045 0.951908,2.55841075 1.696839,4.08968965 1.262975,2.5961668 1.501067,2.9438288 3.526436,5.149265 2.55427,2.7813685 22.81482,22.9667395 24.6812,24.5896225 l 1.28111,1.11397 -2.66077,-0.01734 c -1.46342,-0.0095 -3.12639,-0.106854 -3.6955,-0.216261 z"
         id="path167" />
    </g>
  </g>
</svg>
