<?xml version="1.0" encoding="UTF-8" standalone="no"?>
<!-- Created with Inkscape (http://www.inkscape.org/) -->

<svg
   width="200mm"
   height="30mm"
   viewBox="0 0 200 30"
   version="1.1"
   id="svg5"
   sodipodi:docname="logo.svg"
   inkscape:version="1.1.1 (3bf5ae0d25, 2021-09-20)"
   xmlns:inkscape="http://www.inkscape.org/namespaces/inkscape"
   xmlns:sodipodi="http://sodipodi.sourceforge.net/DTD/sodipodi-0.dtd"
   xmlns="http://www.w3.org/2000/svg"
   xmlns:svg="http://www.w3.org/2000/svg">
  <sodipodi:namedview
     id="namedview7"
     pagecolor="#ffffff"
     bordercolor="#666666"
     borderopacity="1.0"
     inkscape:pageshadow="2"
     inkscape:pageopacity="0.0"
     inkscape:pagecheckerboard="0"
     inkscape:document-units="mm"
     showgrid="false"
     inkscape:zoom="0.59885342"
     inkscape:cx="354.00983"
     inkscape:cy="334.80647"
     inkscape:window-width="1366"
     inkscape:window-height="705"
     inkscape:window-x="-8"
     inkscape:window-y="-8"
     inkscape:window-maximized="1"
     inkscape:current-layer="layer1"
     units="mm" />
  <defs
     id="defs2" />
  <g
     inkscape:label="Layer 1"
     inkscape:groupmode="layer"
     id="layer1">
    <g
       id="g41"
       transform="translate(-3.5345321,-2.2090826)"
       clip-path="none">
      <path
         style="fill:#fdfdfd;stroke-width:0.0827139"
         d="m 158.37109,28.651357 c 4.0935,-4.78194 5.64616,-6.62344 5.61275,-6.65687 -0.0219,-0.0219 -0.34582,0.001 -0.71975,0.0516 -0.96042,0.12925 -3.19336,0.11323 -4.12756,-0.0296 -1.48873,-0.22765 -2.37974,-0.68334 -2.71001,-1.38596 -0.45464,-0.96721 -0.63154,-2.94873 -0.57731,-6.46702 0.0611,-3.96809 0.32809,-5.0206695 1.4049,-5.5396195 0.37903,-0.18267 0.74795,-0.27119 2.22868,-0.53474 l 0.30491,-0.0542 -0.78467,-0.90987 c -0.43156,-0.5004 -0.89759,-1.04942 -1.0356,-1.22002 l -0.25094,-0.31019 h 1.61513 1.61513 l 1.14206,1.27517 c 0.93936,1.04881 1.18306,1.27638 1.37303,1.28207 0.45587,0.0131 1.50361,0.272 1.88326,0.46437 0.74195,0.37598 1.04284,0.99575 1.23863,2.5513195 l 0.10213,0.81146 2.44957,2.72884 c 1.34726,1.50087 2.44956,2.76393 2.44956,2.80682 0,0.0428 -2.38216,2.73694 -5.2937,5.98681 l -5.2937,5.90885 -1.64074,0.003 -1.64073,0.003 0.65495,-0.7651 z m 4.85529,-8.26051 c 0.62912,-0.11014 1.08668,-0.3446 1.23345,-0.63206 0.0636,-0.12468 0.15916,-0.43137 0.21218,-0.68159 0.1067,-0.5032 0.24947,-2.877 0.25254,-4.19892 l 0.002,-0.84901 -1.87987,-2.19248 -1.87988,-2.1924895 -0.62222,0.0474 c -1.46395,0.11144 -2.20255,0.3323595 -2.41274,0.7214595 -0.21366,0.39557 -0.32257,1.16291 -0.41079,2.89473 -0.14282,2.80405 0.048,5.82123 0.41079,6.49279 0.19739,0.36538 0.98171,0.61946 2.20407,0.71401 0.6169,0.0477 2.32974,-0.0257 2.8905,-0.12386 z m 4.0952,-2.20667 c 0.60522,-0.69734 0.60873,-0.65103 -0.11095,-1.45923 l -0.43737,-0.49115 -0.0554,1.07016 c -0.0304,0.58859 -0.0784,1.21905 -0.10654,1.40102 -0.0593,0.38325 -0.10049,0.41346 0.71033,-0.5208 z m -1.13864,10.46718 c 0.38377,-0.42082 2.64558,-2.94256 5.02623,-5.60388 2.38065,-2.66134 4.47426,-4.99137 4.65249,-5.17788 l 0.32403,-0.3391 -5.33335,-5.94717 -5.33334,-5.9471695 1.65764,-0.0224 c 1.22927,-0.0167 1.68973,0.005 1.78177,0.0806 0.257,0.21329 10.56715,11.7466595 10.56715,11.8208595 0,0.0426 -2.38217,2.7366 -5.29371,5.98647 l -5.2937,5.90885 -1.72649,0.003 -1.72651,0.003 0.69779,-0.76511 z m 7.94054,0 c 0.38379,-0.42082 2.64559,-2.94256 5.02625,-5.60388 2.38064,-2.66134 4.47425,-4.99137 4.65247,-5.17788 l 0.32403,-0.3391 -5.33333,-5.94717 -5.33336,-5.9471695 1.65765,-0.0224 c 1.22928,-0.0167 1.68972,0.005 1.78177,0.0806 0.25702,0.21329 10.56716,11.7466595 10.56716,11.8208595 0,0.0426 -2.38218,2.7366 -5.2937,5.98647 l -5.29371,5.90885 -1.7265,0.003 -1.72651,0.003 0.69778,-0.76511 z m 7.94057,0 c 0.38377,-0.42082 2.64558,-2.94256 5.02623,-5.60388 2.38064,-2.66134 4.47426,-4.99137 4.65247,-5.17788 l 0.32403,-0.3391 -5.33335,-5.94717 -5.33334,-5.9471695 1.57485,-0.0226 c 1.16397,-0.0167 1.60725,0.005 1.69905,0.0806 0.25707,0.21335 10.56725,11.7467195 10.56725,11.8209395 0,0.0426 -2.38217,2.7366 -5.29371,5.98647 l -5.2937,5.90885 -1.64377,0.003 -1.64381,0.003 0.6978,-0.76511 z M 22.701977,26.102407 c -1.47006,-0.24578 -2.082301,-0.98382 -2.173954,-2.62069 l -0.04281,-0.7651 h 0.867984 0.867983 l 0.0518,0.49578 c 0.06961,0.6662 0.23754,1.03789 0.539363,1.19398 0.598106,0.30929 2.147449,0.35079 2.997883,0.0802 0.74628,-0.23736 0.981222,-0.71452 1.046191,-2.12485 l 0.0451,-0.98054 -0.316186,0.21457 c -0.59858,0.40622 -1.10214,0.50076 -2.645046,0.49669 -1.54498,-0.005 -1.960107,-0.0987 -2.66119,-0.60657 -0.39243,-0.28429 -0.797655,-1.01593 -0.995226,-1.79695 -0.20865,-0.82486 -0.20968,-4.19986 -0.0016,-5.02194 0.336645,-1.32954 0.838751,-1.9512 1.861184,-2.30442 0.491518,-0.16981 0.709563,-0.19209 1.879451,-0.19209 1.431268,0 1.874223,0.0895 2.481675,0.50179 0.163077,0.11079 0.313555,0.20128 0.334275,0.20128 0.02075,0 0.03775,-0.13023 0.03775,-0.2895 v -0.2895 h 0.909864 0.909847 l -0.0012,5.56252 c -0.0013,5.91267 -0.01471,6.14876 -0.406009,6.91488 -0.349765,0.6856 -1.138579,1.15139 -2.257273,1.33293 -0.607779,0.0987 -2.734428,0.0971 -3.329936,-0.003 z m 2.8827,-5.67151 c 0.843424,-0.29758 1.121913,-0.93058 1.250528,-2.84255 0.06111,-0.9081 -0.05997,-2.27945 -0.248439,-2.81354 -0.07157,-0.20273 -0.229942,-0.47287 -0.352004,-0.60027 -0.566095,-0.59089 -2.537984,-0.70637 -3.436687,-0.20127 -0.540229,0.30364 -0.745987,0.91333 -0.843146,2.49844 -0.05294,0.86429 0.05703,2.42677 0.20811,2.95445 0.105232,0.36779 0.426663,0.76932 0.749369,0.93621 0.55951,0.28932 1.945728,0.32488 2.672269,0.0685 z m 34.873947,-1.27099 v -6.86527 h 0.909864 0.909847 v 0.2955 0.2955 l 0.21365,-0.16804 c 0.117488,-0.0925 0.424588,-0.25035 0.68239,-0.35093 0.659889,-0.25741 2.635503,-0.32225 3.483927,-0.11438 1.759154,0.43111 2.319873,1.63969 2.319873,5.00029 0,2.88547 -0.496534,4.10346 -1.895857,4.65052 -0.380518,0.1487 -0.680265,0.18664 -1.708351,0.21594 -1.423376,0.0405 -2.041385,-0.0685 -2.702744,-0.47659 l -0.392888,-0.24247 v 2.31257 2.31258 h -0.909847 -0.909864 z m 5.293704,1.31784 c 1.032171,-0.26777 1.347965,-1.03149 1.348651,-3.26162 8.33e-4,-2.62572 -0.348475,-3.30317 -1.809858,-3.51033 -1.098007,-0.15573 -2.189608,0.13905 -2.518523,0.6799 -0.360615,0.59301 -0.557565,2.37149 -0.413623,3.73515 0.105885,1.00324 0.193502,1.34397 0.439343,1.70895 0.458739,0.68107 1.741653,0.96247 2.95401,0.64795 z m 5.210988,-1.31784 v -6.86527 h 0.909847 0.909864 v 0.2955 0.2955 l 0.21365,-0.16804 c 0.117487,-0.0925 0.424588,-0.25035 0.68239,-0.35093 0.659872,-0.25741 2.635503,-0.32225 3.483927,-0.11438 1.759154,0.43111 2.319873,1.63969 2.319873,5.00029 0,2.88547 -0.496534,4.10346 -1.895857,4.65052 -0.380518,0.1487 -0.680265,0.18664 -1.708368,0.21594 -1.423359,0.0405 -2.041368,-0.0685 -2.702727,-0.47659 l -0.392888,-0.24247 v 2.31257 2.31258 h -0.909864 -0.909847 z m 5.293703,1.31784 c 1.032172,-0.26777 1.347965,-1.03149 1.348652,-3.26162 8.17e-4,-2.62572 -0.348475,-3.30317 -1.809858,-3.51033 -1.098007,-0.15573 -2.189608,0.13905 -2.518523,0.6799 -0.360631,0.59301 -0.557565,2.37149 -0.413623,3.73515 0.105885,1.00324 0.193502,1.34397 0.439343,1.70895 0.458739,0.68107 1.741653,0.96247 2.954009,0.64795 z m -65.302778,1.53922 c -0.843685,-0.14526 -1.1273525,-0.235 -1.5775133,-0.49882 -0.752947,-0.44125 -1.099608,-1.3175 -1.171277,-2.96064 l -0.04608,-1.05734 0.983885,0.0234 0.9838853,0.0234 0.04608,0.82713 c 0.02533,0.45493 0.09706,0.98755 0.159319,1.18358 0.24803,0.78051 0.875974,0.9684 3.185928,0.95325 1.649461,-0.0114 2.501839,-0.14952 2.833565,-0.46118 0.529787,-0.49772 0.665673,-2.81765 0.202261,-3.45306 -0.348115,-0.47728 -0.672357,-0.53632 -4.069762,-0.7408 -1.934093,-0.11635 -2.7151945,-0.38207 -3.4164083,-1.16198 -0.208748,-0.23218 -0.464246,-0.63438 -0.567762,-0.89375 -0.167864,-0.4206 -0.188469,-0.61476 -0.190545,-1.79504 -0.0033,-1.57101 0.154253,-2.2410795 0.664938,-2.8377195 0.6590228,-0.76992 1.5734293,-1.01372 4.0119983,-1.0697 3.481166,-0.0799 4.692378,0.30865 5.196723,1.66707 0.193127,0.5202195 0.405356,2.0726595 0.315402,2.3071295 -0.04608,0.12027 -0.187015,0.14004 -0.995275,0.14004 h -0.941564 l -0.05131,-0.66522 c -0.07255,-0.93986 -0.276233,-1.36303 -0.759172,-1.5766595 -1.01356,-0.44835 -4.28436,-0.35838 -5.043026,0.1387295 -0.110625,0.0724 -0.285385,0.30543 -0.388492,0.51776 -0.264175,0.54403 -0.266054,1.9279 -0.0033,2.51872 0.271822,0.61144 0.715038,0.73816 3.094325,0.88463 2.468521,0.15197 3.76204,0.39794 4.37013,0.83094 0.615721,0.43845 0.903654,1.4247 0.904912,3.09973 9.48e-4,1.28883 -0.101637,1.99099 -0.382691,2.61801 -0.344144,0.76785 -0.826234,1.09763 -1.995206,1.36483 -0.790612,0.1807 -4.440541,0.23087 -5.353803,0.0735 z m 21.690483,0.0346 c -0.69257,-0.17217 -1.202552,-0.55974 -1.519473,-1.15476 -0.141998,-0.26669 -0.156051,-0.55835 -0.178323,-3.70145 l -0.02418,-3.41196 h -0.616914 -0.616897 v -0.74442 -0.74444 h 0.620345 0.620361 v -1.15799 -1.1580095 h 0.909864 0.909847 v 1.1580095 1.15799 h 1.819711 1.819712 v 0.74444 0.74442 h -1.819712 -1.819711 l 0.0033,2.87431 c 0.0033,2.99704 0.03366,3.29002 0.373851,3.66593 0.230563,0.25476 0.734565,0.35576 1.132681,0.22698 0.535114,-0.17309 0.674514,-0.43841 0.723045,-1.3761 l 0.04151,-0.8005 0.8379,-0.0235 c 0.680511,-0.0191 0.846774,-3.2e-4 0.885108,0.0995 0.09298,0.24239 -0.09788,1.94022 -0.259076,2.30472 -0.23218,0.5249 -0.620002,0.92297 -1.111798,1.14113 -0.364553,0.16177 -0.595263,0.19615 -1.427412,0.21296 -0.545915,0.0114 -1.132729,-0.0147 -1.304025,-0.0574 z m 19.542494,-0.0391 c -0.740758,-0.15082 -1.10768,-0.32153 -1.532742,-0.71332 -0.683779,-0.6303 -0.949032,-1.80463 -0.948051,-4.19741 9.64e-4,-2.41932 0.223814,-3.38822 0.945191,-4.1096 0.648958,-0.64896 1.164725,-0.79324 3.014518,-0.84338 2.144378,-0.0582 3.235374,0.16588 3.829722,0.78622 0.604675,0.63111 0.793717,1.34212 0.868817,3.26773 l 0.05082,1.30275 h -3.413337 -3.413353 l 0.0549,0.64103 c 0.159482,1.86349 0.450847,2.24672 1.8403,2.42094 0.768372,0.0964 2.134998,-0.0147 2.500597,-0.20445 0.307918,-0.15916 0.50379,-0.59173 0.50379,-1.11235 v -0.42175 h 0.960845 0.960829 l -0.03333,0.80646 c -0.02876,0.69408 -0.06618,0.8665 -0.269044,1.23728 -0.524411,0.95852 -1.508002,1.27049 -3.963239,1.25706 -0.818488,-0.005 -1.647189,-0.0541 -1.957182,-0.11716 z m 4.277643,-6.53941 c -0.06111,-0.80891 -0.314094,-1.34286 -0.73311,-1.54774 -0.72543,-0.35468 -2.584488,-0.33975 -3.302451,0.0265 -0.426957,0.21782 -0.647617,0.68249 -0.729074,1.53526 l -0.0585,0.61221 h 2.435236 2.435252 z m 27.236416,6.53941 c -0.740757,-0.15082 -1.10768,-0.32153 -1.532725,-0.71332 -0.683795,-0.6303 -0.949032,-1.80463 -0.948068,-4.19741 9.64e-4,-2.41932 0.22383,-3.38822 0.945192,-4.1096 0.648957,-0.64896 1.16474,-0.79324 3.014518,-0.84338 2.144381,-0.0582 3.235377,0.16588 3.829725,0.78622 0.604675,0.63111 0.793733,1.34212 0.868817,3.26773 l 0.05082,1.30275 h -3.413353 -3.413357 l 0.0549,0.64103 c 0.159482,1.86349 0.45083,2.24672 1.840283,2.42094 0.768393,0.0964 2.135002,-0.0147 2.500617,-0.20445 0.307902,-0.15916 0.50379,-0.59173 0.50379,-1.11235 v -0.42175 h 0.960829 0.960829 l -0.03333,0.80646 c -0.02876,0.69408 -0.06618,0.8665 -0.269044,1.23728 -0.524411,0.95852 -1.507986,1.27049 -3.963222,1.25706 -0.818492,-0.005 -1.647193,-0.0541 -1.957203,-0.11716 z m 4.277663,-6.53941 c -0.06111,-0.80891 -0.314094,-1.34286 -0.733126,-1.54774 -0.725414,-0.35468 -2.584476,-0.33975 -3.302438,0.0265 -0.426957,0.21782 -0.647634,0.68249 -0.729091,1.53526 l -0.0585,0.61221 h 2.435239 2.435236 z m 35.1615,6.53873 c -1.44829,-0.28835 -1.9763,-0.80955 -2.35994,-2.3295 -0.17693,-0.70102 -0.21093,-4.18295 -0.0476,-4.87297 0.49016,-2.07046 1.4273,-2.67933 4.11864,-2.67595 1.77899,0.002 2.6888,0.20703 3.29877,0.74261 0.48518,0.42599 0.70476,0.98385 0.83318,2.11684 0.0778,0.68621 0.069,0.69293 -0.90298,0.69293 h -0.84769 l -0.051,-0.54681 c -0.0933,-0.99871 -0.42529,-1.2921 -1.63507,-1.4448 -1.31505,-0.16597 -2.31123,0.074 -2.69308,0.64904 -0.27277,0.41068 -0.39157,1.30276 -0.3881,2.91414 0.003,1.53516 0.12565,2.30995 0.43097,2.72957 0.0828,0.11373 0.37041,0.29668 0.63921,0.40656 0.42955,0.1756 0.61887,0.19993 1.564,0.20104 1.75789,0.002 2.07501,-0.23645 2.18261,-1.64154 l 0.0507,-0.66172 0.89865,-0.0235 0.89868,-0.0235 -0.0353,0.85073 c -0.0436,1.05484 -0.23671,1.54634 -0.8225,2.09428 -0.75677,0.70786 -1.63487,0.94892 -3.42103,0.93915 -0.6369,-0.003 -1.40689,-0.0559 -1.7111,-0.11651 z m 10.89237,0.0706 c -1.22333,-0.14952 -2.02607,-0.39501 -2.44543,-0.74787 -0.58688,-0.49384 -0.90079,-1.57325 -0.90305,-3.10525 l -0.002,-0.9719 h 0.93864 0.93864 l 0.0487,1.03088 c 0.0534,1.12894 0.214,1.66388 0.56839,1.89251 0.43545,0.28096 2.71487,0.45153 4.08139,0.30544 1.01711,-0.10867 1.50629,-0.32439 1.71801,-0.75735 0.3513,-0.71838 0.36067,-2.52555 0.0168,-3.25011 -0.27806,-0.58597 -1.1351,-0.79293 -3.28356,-0.79293 h -1.13949 v -0.76929 -0.76929 l 1.67496,-0.089 c 1.99519,-0.10621 2.28282,-0.18748 2.53369,-0.71648 0.21991,-0.46372 0.29186,-1.28115 0.18211,-2.06946 -0.1232,-0.88545 -0.26863,-1.16531 -0.69366,-1.3353795 -0.52634,-0.21059 -2.27974,-0.3203 -3.49613,-0.21873 -1.13831,0.0951 -1.54745,0.23604 -1.73448,0.5976995 -0.14674,0.28368 -0.28235,1.17766 -0.28455,1.87536 l -0.002,0.51696 h -0.92046 -0.92046 l 0.042,-1.13732 c 0.10719,-2.9030895 0.9347,-3.4946595 4.88817,-3.4946595 2.50019,0 3.634,0.23872 4.27604,0.90032 0.59041,0.6084 0.70012,1.0532695 0.69579,2.8217995 -0.003,1.3061 -0.0219,1.4938 -0.19144,1.92148 -0.19347,0.48802 -0.62076,0.93396 -0.98369,1.02665 -0.27182,0.0694 -0.23089,0.13497 0.19307,0.30935 0.55778,0.2294 0.8297,0.49771 1.04023,1.02641 0.17064,0.42851 0.18829,0.60987 0.19078,1.96103 0.003,1.33119 -0.0177,1.55353 -0.18916,2.09969 -0.35784,1.13923 -1.15069,1.68303 -2.78582,1.91074 -0.5405,0.0753 -3.50061,0.0963 -4.053,0.0288 z m 12.77932,0.002 c -1.76134,-0.26454 -2.49453,-0.64612 -2.94335,-1.53183 -0.44327,-0.87472 -0.47157,-1.15423 -0.5087,-5.02247 -0.0361,-3.77327 0.007,-4.51103 0.31952,-5.52456 0.24109,-0.7805595 0.79717,-1.3291695 1.60232,-1.5808195 0.88114,-0.2754 1.51998,-0.34687 3.10178,-0.34702 3.21225,-3.1e-4 4.45348,0.47794 4.87934,1.88004 0.13056,0.4299795 0.16741,0.7427995 0.14919,1.2679295 l -0.0243,0.69712 -0.92329,0.0234 -0.9233,0.0234 0.007,-0.65293 c 0.0114,-1.13489 -0.32321,-1.4466795 -1.71991,-1.5984395 -0.86084,-0.0935 -2.77137,0.0114 -3.38464,0.18513 -0.41455,0.1178195 -0.82645,0.5266295 -0.95516,0.9481995 -0.11781,0.38568 -0.22001,3.38314 -0.11373,3.33173 0.0399,-0.0193 0.27709,-0.13382 0.52731,-0.25474 0.65807,-0.31789 1.71191,-0.47549 3.17463,-0.47476 3.85494,0.002 4.77908,0.91912 4.65929,4.62419 -0.0927,2.86377 -0.69383,3.64062 -3.07378,3.97164 -0.5862,0.0815 -3.37175,0.10687 -3.8503,0.035 z m 2.97772,-1.60314 c 1.15035,-0.10131 1.61742,-0.29249 1.84339,-0.75471 0.36774,-0.75213 0.36191,-2.98104 -0.01,-3.82173 -0.1873,-0.42345 -0.4173,-0.57147 -1.089,-0.70086 -1.13374,-0.21837 -3.35977,-0.18105 -4.24135,0.0711 -0.92905,0.26576 -1.23987,1.13595 -1.05747,2.96053 0.17561,1.75652 0.48883,2.08297 2.15569,2.24674 0.92839,0.0912 1.35265,0.091 2.39871,-9.5e-4 z M 37.794976,15.103217 V 8.2342375 l 3.990952,0.0257 c 3.907763,0.0252 4.0027,0.0297 4.554498,0.21543 1.449193,0.48786 1.930548,1.6144395 1.856379,4.3446595 -0.03121,1.14995 -0.07206,1.52176 -0.215562,1.96458 -0.224468,0.69255 -0.679563,1.22566 -1.259188,1.47499 -0.853718,0.36727 -1.351805,0.41592 -4.274425,0.41744 l -2.750245,0.002 v 2.64685 2.64686 H 38.74618 37.794976 v -6.86898 z m 6.278503,-0.0794 c 1.762291,-0.15883 2.1057,-0.4581 2.277454,-1.98472 0.06618,-0.58825 -0.0786,-1.96332 -0.252573,-2.39801 C 45.821505,9.9491575 45.140031,9.8212575 41.703213,9.8161975 l -2.005828,-0.003 v 2.6468595 2.64684 l 1.757683,-0.003 c 0.966712,-0.002 2.144999,-0.0377 2.618411,-0.0804 z m 47.899224,2.10962 v -4.8388 h 0.909848 0.909863 v 0.21242 0.21241 l 0.255727,-0.1821 c 0.463788,-0.33024 1.16644,-0.49088 2.147237,-0.49088 1.426333,0 2.091729,0.32125 2.534961,1.22383 0.205856,0.41919 0.234974,0.58021 0.261086,1.4437 l 0.02941,0.97189 h -0.920106 -0.920093 l 0.01634,-0.60908 c 0.02598,-1.0099 -0.39055,-1.4764 -1.316542,-1.47416 -1.12853,0.003 -1.815561,0.68083 -2.002985,1.97697 -0.04461,0.30865 -0.08187,1.87325 -0.08284,3.47688 l -0.0016,2.91566 h -0.909887 -0.909863 z m 7.030683,4.64767 c 0,-0.10507 0.09477,-0.43078 0.210742,-0.72375 0.115853,-0.29294 1.180062,-3.17529 2.364802,-6.40517 1.18475,-3.2299 2.20507,-5.9945595 2.26739,-6.1436995 l 0.11324,-0.27115 1.25633,0.0229 1.25633,0.0229 2.46912,6.6124595 c 1.35802,3.63686 2.46911,6.71811 2.46911,6.84722 v 0.23474 l -0.97189,-0.0232 -0.97189,-0.0234 -0.5091,-1.36478 -0.50912,-1.36478 h -3.20272 -3.20275 l -0.46816,1.28207 c -0.25748,0.70513 -0.49695,1.3286 -0.53213,1.38547 -0.0454,0.0734 -0.35078,0.10343 -1.051657,0.10343 -0.97678,0 -0.987696,-0.002 -0.987696,-0.1911 z m 8.813954,-4.25115 c -0.0297,-0.0776 -0.61729,-1.6976 -1.30558,-3.59995 -0.68827,-1.90234 -1.2783,-3.43005 -1.31117,-3.3949 -0.0554,0.0592 -2.55778,6.9995 -2.55778,7.09372 0,0.0232 1.17645,0.0423 2.61434,0.0423 2.43032,0 2.61053,-0.01 2.56019,-0.14118 z m 4.91658,-0.39652 v -4.8388 h 0.90987 0.90984 v 0.20678 c 0,0.25024 0.0368,0.25495 0.31039,0.0397 0.11683,-0.0918 0.47006,-0.24533 0.78502,-0.34099 0.78963,-0.23984 2.21968,-0.19363 2.81453,0.091 0.90604,0.43347 1.33445,1.31675 1.28551,2.6504 l -0.0258,0.70306 -0.8897,0.0235 -0.8897,0.0235 0.0212,-0.60248 c 0.0382,-1.08414 -0.33834,-1.50662 -1.33955,-1.50319 -0.87567,0.003 -1.51117,0.44061 -1.84239,1.26865 -0.17714,0.44293 -0.18468,0.57713 -0.2124,3.78843 l -0.0288,3.32925 h -0.90403 -0.90402 z"
         id="path222" />
      <path
         style="fill:#eba8e0;stroke-width:0.0827139"
         d="m 21.120214,25.425507 -0.157521,-0.18612 0.186117,0.15752 c 0.174891,0.14805 0.223765,0.21465 0.157521,0.21465 -0.01634,0 -0.09951,-0.0838 -0.186117,-0.1861 z m 6.749057,-0.10344 c 0.106866,-0.11373 0.212883,-0.20678 0.235628,-0.20678 0.02271,0 -0.04608,0.0931 -0.152945,0.20678 -0.106866,0.11373 -0.212866,0.20679 -0.235612,0.20679 -0.02271,0 0.04608,-0.0931 0.152946,-0.20679 z m -5.304242,-1.09596 c -0.102945,-0.13121 -0.100003,-0.13415 0.03121,-0.0312 0.137749,0.10801 0.18159,0.17598 0.113565,0.17598 -0.01716,0 -0.08235,-0.0652 -0.144776,-0.14477 z m 111.448831,-2.1385 c 0.0275,-0.0274 0.0989,-0.0304 0.1585,-0.007 0.066,0.0265 0.0464,0.0459 -0.05,0.05 -0.0873,0.003 -0.13612,-0.0163 -0.1085,-0.0435 z m 25.47594,0 c 0.0275,-0.0274 0.0989,-0.0304 0.1585,-0.007 0.066,0.0265 0.0464,0.0459 -0.05,0.05 -0.0873,0.003 -0.13612,-0.0163 -0.1085,-0.0435 z m 3.39127,0 c 0.0275,-0.0274 0.0989,-0.0304 0.15851,-0.007 0.066,0.0265 0.0464,0.0459 -0.05,0.05 -0.0873,0.003 -0.13611,-0.0163 -0.1085,-0.0435 z m -51.45444,-0.32224 c -0.002,-0.13645 0.0147,-0.20231 0.0381,-0.14625 0.0227,0.056 0.024,0.16765 0.003,0.24813 -0.0209,0.0806 -0.0395,0.0346 -0.0412,-0.1018 z m -79.967154,-0.31018 -0.157521,-0.1861 0.186117,0.15752 c 0.174891,0.14805 0.223765,0.21463 0.157521,0.21463 -0.01634,0 -0.09951,-0.0837 -0.186117,-0.1861 z m 4.515772,0.0621 c 0.0567,-0.0683 0.121572,-0.12403 0.144285,-0.12403 0.02271,0 -0.0049,0.0559 -0.0616,0.12403 -0.0567,0.0683 -0.121572,0.12402 -0.144285,0.12402 -0.02271,0 0.0049,-0.0559 0.0616,-0.12402 z m 92.060782,-0.0492 c 0,-0.0227 0.14886,-0.18674 0.33086,-0.36442 0.18198,-0.1777 0.33086,-0.30447 0.33086,-0.28172 0,0.0227 -0.14886,0.18675 -0.33086,0.36443 -0.18197,0.17769 -0.33086,0.30446 -0.33086,0.28171 z m 11.99355,-0.003 c 0,-0.0227 0.1116,-0.14837 0.24814,-0.27909 0.13644,-0.13072 0.24815,-0.21912 0.24815,-0.19638 0,0.0227 -0.11161,0.14837 -0.24815,0.2791 -0.13644,0.13072 -0.24814,0.21912 -0.24814,0.19637 z m 4.21398,-0.29976 -0.28506,-0.31017 0.31017,0.28504 c 0.28872,0.26532 0.34822,0.3353 0.28506,0.3353 -0.0131,0 -0.15344,-0.13954 -0.31017,-0.31017 z m -126.382691,0.10343 c 0.0567,-0.0683 0.121572,-0.12402 0.144285,-0.12402 0.02271,0 -0.0049,0.0559 -0.0616,0.12402 -0.0567,0.0683 -0.121572,0.12403 -0.144285,0.12403 -0.02271,0 0.0049,-0.0559 0.0616,-0.12403 z m 103.547481,-0.0206 c -0.10295,-0.13122 -0.1,-0.13416 0.0312,-0.0312 0.0796,0.0624 0.14477,0.12761 0.14477,0.14477 0,0.0681 -0.068,0.0242 -0.17598,-0.11356 z m 10.0084,0 c -0.10294,-0.13122 -0.1,-0.13416 0.0312,-0.0312 0.0796,0.0624 0.14478,0.12761 0.14478,0.14477 0,0.0681 -0.068,0.0242 -0.17599,-0.11356 z m -0.36504,-0.52262 c -0.0299,-0.0485 -0.0368,-0.10588 -0.0147,-0.12762 0.0217,-0.0217 0.0614,0.018 0.0884,0.0882 0.0559,0.14576 0.008,0.17138 -0.0734,0.0394 z m -97.247703,-0.13227 c 0.05686,-0.023 0.149841,-0.023 0.206787,0 0.05686,0.0229 0.0098,0.0417 -0.103434,0.0417 -0.113729,0 -0.160299,-0.0188 -0.103435,-0.0417 z m 114.188523,-0.0779 c 0.0275,-0.0274 0.0989,-0.0304 0.1585,-0.007 0.066,0.0265 0.0464,0.0459 -0.05,0.05 -0.0873,0.003 -0.13612,-0.0163 -0.1085,-0.0435 z m -114.878772,-0.21885 -0.157521,-0.18611 0.186116,0.15752 c 0.174891,0.14804 0.223749,0.21464 0.157521,0.21464 -0.01634,0 -0.09951,-0.0837 -0.186116,-0.1861 z m 1.496711,0.0206 c 0.08235,-0.091 0.168322,-0.16543 0.191068,-0.16543 0.02271,0 -0.02598,0.0744 -0.108337,0.16543 -0.08235,0.091 -0.168322,0.16541 -0.191068,0.16541 -0.02271,0 0.02598,-0.0743 0.108337,-0.16541 z m 92.267571,-0.12402 c 0.0567,-0.0683 0.12157,-0.12403 0.14428,-0.12403 0.0227,0 -0.005,0.0559 -0.0616,0.12403 -0.0567,0.0683 -0.12157,0.12402 -0.14428,0.12402 -0.0227,0 0.005,-0.0559 0.0616,-0.12402 z m -3.93677,-0.14478 -0.15752,-0.1861 0.1861,0.15752 c 0.17489,0.14805 0.22375,0.21465 0.15752,0.21465 -0.0163,0 -0.0995,-0.0838 -0.1861,-0.18612 z m 15.80624,-0.0621 c 0.0824,-0.091 0.16832,-0.16543 0.19107,-0.16543 0.0227,0 -0.026,0.0745 -0.10834,0.16543 -0.0823,0.091 -0.16832,0.16543 -0.19106,0.16543 -0.0227,0 0.026,-0.0745 0.10833,-0.16543 z m 12.65526,0 c 0.0824,-0.091 0.16833,-0.16543 0.19107,-0.16543 0.0227,0 -0.026,0.0745 -0.10833,0.16543 -0.0824,0.091 -0.16833,0.16543 -0.19107,0.16543 -0.0227,0 0.026,-0.0745 0.10833,-0.16543 z m 6.81336,-0.0621 c -0.10294,-0.13122 -0.1,-0.13416 0.0312,-0.0312 0.0796,0.0624 0.14478,0.12761 0.14478,0.14477 0,0.0681 -0.068,0.0242 -0.17599,-0.11356 z m 6.04868,0.0207 c 0.0567,-0.0683 0.12157,-0.12403 0.14428,-0.12403 0.0227,0 -0.005,0.0559 -0.0616,0.12403 -0.0567,0.0683 -0.12157,0.12402 -0.14429,0.12402 -0.0227,0 0.005,-0.0559 0.0616,-0.12402 z m -35.13738,-1.48885 c -0.002,-0.13645 0.0147,-0.20233 0.0381,-0.14641 0.0227,0.056 0.024,0.16767 0.003,0.24814 -0.0209,0.0806 -0.0395,0.0346 -0.0412,-0.1018 z m 22.7368,-0.1585 c -0.003,-0.0873 0.0163,-0.13612 0.0435,-0.1085 0.0275,0.0274 0.0304,0.0988 0.007,0.1585 -0.0265,0.066 -0.0461,0.0464 -0.05,-0.05 z m 12.90339,-0.33086 c -0.003,-0.0873 0.0163,-0.13612 0.0435,-0.1085 0.0275,0.0274 0.0304,0.0988 0.007,0.1585 -0.0265,0.066 -0.0459,0.0464 -0.05,-0.05 z m -7.11342,-1.81972 c -0.003,-0.0873 0.0163,-0.13611 0.0435,-0.1085 0.0275,0.0275 0.0304,0.0989 0.007,0.15851 -0.0265,0.066 -0.0459,0.0464 -0.05,-0.05 z m 7.19613,0 c -0.003,-0.0873 0.0163,-0.13611 0.0435,-0.1085 0.0275,0.0275 0.0304,0.0989 0.007,0.15851 -0.0265,0.066 -0.0461,0.0464 -0.05,-0.05 z m -27.94148,-0.42908 c 0.0275,-0.0275 0.0989,-0.0304 0.1585,-0.007 0.066,0.0265 0.0464,0.0461 -0.05,0.05 -0.0873,0.003 -0.13612,-0.0163 -0.1085,-0.0435 z m -9.76348,-0.28087 c 0,-0.15916 0.017,-0.22437 0.0379,-0.14478 0.0207,0.0796 0.0207,0.2099 0,0.28951 -0.0208,0.0796 -0.0379,0.0147 -0.0379,-0.14478 z m 24.20549,0.10343 c -0.10294,-0.13121 -0.1,-0.13415 0.0312,-0.0312 0.0796,0.0624 0.14478,0.12762 0.14478,0.14478 0,0.0681 -0.068,0.0243 -0.17599,-0.11357 z M 9.1345307,14.857977 c -0.130722,-0.13644 -0.219124,-0.24814 -0.196378,-0.24814 0.02271,0 0.14837,0.1116 0.279093,0.24814 0.130723,0.13645 0.219124,0.24815 0.196379,0.24815 -0.02271,0 -0.148371,-0.11161 -0.279094,-0.24815 z M 148.9851,15.056137 c 0.0275,-0.0274 0.0989,-0.0304 0.15851,-0.007 0.066,0.0265 0.0464,0.0459 -0.05,0.05 -0.0872,0.003 -0.13611,-0.0163 -0.1085,-0.0435 z m 3.90653,-0.69445 c -0.13073,-0.13644 -0.21913,-0.24814 -0.19638,-0.24814 0.0227,0 0.14837,0.1116 0.27909,0.24814 0.13072,0.13645 0.21913,0.24815 0.19638,0.24815 -0.0227,0 -0.14837,-0.11161 -0.27909,-0.24815 z m -12.65527,0 c 0.0824,-0.091 0.16833,-0.16543 0.19107,-0.16543 0.0227,0 -0.026,0.0745 -0.10834,0.16543 -0.0823,0.091 -0.16832,0.16543 -0.19106,0.16543 -0.0227,0 0.026,-0.0745 0.10833,-0.16543 z m -13.49025,-0.26881 -0.15753,-0.18612 0.18612,0.15752 c 0.17489,0.14805 0.22375,0.21465 0.15752,0.21465 -0.0163,0 -0.0995,-0.0837 -0.18611,-0.1861 z m 38.10422,-0.0131 c -0.003,-0.0873 0.0163,-0.13612 0.0435,-0.1085 0.0275,0.0274 0.0304,0.0989 0.007,0.1585 -0.0265,0.066 -0.0461,0.0464 -0.05,-0.05 z m -39.85232,-0.42908 c 0.0275,-0.0275 0.0989,-0.0304 0.15851,-0.007 0.066,0.0265 0.0464,0.0461 -0.05,0.05 -0.0873,0.003 -0.13612,-0.0163 -0.1085,-0.0435 z M 10.48877,13.473207 c -0.102944,-0.13122 -0.100003,-0.13416 0.03121,-0.0312 0.137749,0.10801 0.181607,0.17597 0.113566,0.17597 -0.01716,0 -0.08236,-0.0652 -0.144776,-0.14478 z m 10.349802,-0.27923 c 0,-0.0227 0.111605,-0.14837 0.248145,-0.27909 0.136442,-0.13072 0.248144,-0.21912 0.248144,-0.19638 0,0.0227 -0.111604,0.14837 -0.248144,0.27909 -0.136442,0.13073 -0.248145,0.21913 -0.248145,0.19638 z m 100.663048,-0.19633 c 0.10687,-0.11372 0.21288,-0.20678 0.23563,-0.20678 0.0227,0 -0.0461,0.0931 -0.15295,0.20678 -0.10686,0.11373 -0.21286,0.20679 -0.23561,0.20679 -0.0227,0 0.0461,-0.0931 0.15295,-0.20679 z m 6.69358,-0.10343 -0.20053,-0.22746 0.22748,0.20053 c 0.12516,0.1103 0.22745,0.21265 0.22745,0.22746 0,0.0649 -0.067,0.0114 -0.2544,-0.20053 z m -9.13364,-0.1861 c -0.13072,-0.13644 -0.21914,-0.24815 -0.19638,-0.24815 0.0227,0 0.14837,0.11161 0.2791,0.24815 0.13072,0.13644 0.21912,0.24814 0.19638,0.24814 -0.0227,0 -0.14837,-0.1116 -0.2791,-0.24814 z m -92.443551,0.0207 c -0.102945,-0.13121 -0.100003,-0.13415 0.03121,-0.0312 0.137749,0.10801 0.18159,0.17599 0.113565,0.17599 -0.01716,0 -0.08235,-0.0652 -0.144775,-0.14478 z m 104.246421,-0.22742 c -0.002,-0.13644 0.0147,-0.20231 0.0381,-0.14625 0.0227,0.056 0.024,0.16765 0.003,0.24815 -0.0209,0.0805 -0.0396,0.0346 -0.0412,-0.1018 z m 1.90717,-0.0827 c -9.3e-4,-0.18197 0.0147,-0.26616 0.0359,-0.18707 0.0208,0.0791 0.0214,0.22797 0.002,0.33086 -0.0198,0.10294 -0.0368,0.0382 -0.0376,-0.14379 z m 18.68864,-0.66171 c -0.002,-0.13644 0.0147,-0.20232 0.0381,-0.14641 0.0227,0.056 0.024,0.16767 0.003,0.24815 -0.0209,0.0806 -0.0395,0.0346 -0.0412,-0.1018 z m -12.49942,-0.0758 c -0.003,-0.0873 0.0163,-0.13611 0.0435,-0.1085 0.0275,0.0275 0.0304,0.0989 0.007,0.1585 -0.0263,0.066 -0.0459,0.0464 -0.05,-0.05 z m -6.20355,-0.0827 c -0.003,-0.0873 0.0163,-0.13611 0.0435,-0.1085 0.0275,0.0274 0.0304,0.0989 0.007,0.1585 -0.0263,0.066 -0.0461,0.0464 -0.05,-0.05 z m 10.58741,-0.16543 c -0.003,-0.0873 0.0163,-0.13611 0.0435,-0.1085 0.0275,0.0275 0.0304,0.0989 0.007,0.1585 -0.0265,0.066 -0.0461,0.0464 -0.05,-0.05 z m 8.19522,-0.21368 c 0,-0.11373 0.0188,-0.1603 0.0417,-0.10344 0.0229,0.0569 0.0229,0.14985 0,0.20679 -0.0229,0.0569 -0.0417,0.01 -0.0417,-0.10343 z m 6.68679,-0.95121 c 0.0567,-0.0683 0.12157,-0.12402 0.14428,-0.12402 0.0227,0 -0.005,0.0559 -0.0616,0.12402 -0.0567,0.0683 -0.12157,0.12403 -0.14429,0.12403 -0.0227,0 0.005,-0.0559 0.0616,-0.12403 z M 16.030618,10.164737 c -0.102944,-0.13121 -0.100003,-0.13416 0.03121,-0.0312 0.07958,0.0624 0.144776,0.12762 0.144776,0.14477 0,0.0681 -0.06798,0.0242 -0.17597,-0.11356 z m 135.116152,-0.0413 -0.15752,-0.1860995 0.1861,0.1575195 c 0.17489,0.14804 0.22376,0.21465 0.15752,0.21465 -0.0163,0 -0.0995,-0.0837 -0.1861,-0.18612 z m -2.82338,-0.4428595 c 0.0275,-0.0275 0.0988,-0.0304 0.1585,-0.007 0.066,0.0265 0.0464,0.0459 -0.05,0.05 -0.0873,0.003 -0.13612,-0.0163 -0.1085,-0.0435 z M 8.8450287,9.2238675 c 0,-0.0227 0.111605,-0.14837 0.248145,-0.27911 0.136442,-0.13072 0.248145,-0.21911 0.248145,-0.19636 0,0.0227 -0.111605,0.14837 -0.248145,0.27909 -0.136442,0.13072 -0.248145,0.21912 -0.248145,0.19638 z m 135.1548313,0 c 0,-0.0227 0.1116,-0.14837 0.24814,-0.27911 0.13644,-0.13072 0.24815,-0.21911 0.24815,-0.19636 0,0.0227 -0.11161,0.14837 -0.24815,0.27909 -0.13644,0.13072 -0.24814,0.21912 -0.24814,0.19638 z m -126.310679,-0.29978 -0.200529,-0.22746 0.227474,0.20051 c 0.212588,0.18743 0.265384,0.25441 0.200512,0.25441 -0.01471,0 -0.11716,-0.10229 -0.227457,-0.22746 z m 122.381749,-0.0206 c -0.13072,-0.13644 -0.21912,-0.24813 -0.19637,-0.24813 0.0227,0 0.14837,0.11161 0.27909,0.24813 0.13072,0.13644 0.21912,0.24814 0.19638,0.24814 -0.0227,0 -0.14837,-0.1116 -0.2791,-0.24814 z m 12.60335,0.0206 c -0.10294,-0.13121 -0.1,-0.13416 0.0312,-0.0312 0.0796,0.0624 0.14478,0.12762 0.14478,0.14477 0,0.0681 -0.068,0.0242 -0.17599,-0.11356 z m 13.15154,0 c -0.10295,-0.13121 -0.1,-0.13416 0.0312,-0.0312 0.0796,0.0624 0.14477,0.12762 0.14477,0.14477 0,0.0681 -0.068,0.0242 -0.17598,-0.11356 z m -34.15036,-0.0621 c 0.0567,-0.0683 0.12157,-0.12403 0.14428,-0.12403 0.0227,0 -0.005,0.0559 -0.0616,0.12403 -0.0567,0.0683 -0.12157,0.12402 -0.14429,0.12402 -0.0227,0 0.005,-0.0559 0.0616,-0.12402 z"
         id="path219" />
      <path
         style="fill:#eb1eb6;stroke-width:0.0827139"
         d="M 6.8599047,17.505627 V 5.5947975 H 21.955223 37.050542 V 17.505627 29.416457 H 21.955223 6.8599047 Z m 19.9411323,8.45107 c 1.025815,-0.33501 1.519866,-0.87137 1.766491,-1.91777 0.106865,-0.45343 0.126637,-1.40447 0.127618,-6.14041 l 0.0013,-5.60388 h -0.909864 -0.909847 v 0.30232 c 0,0.28126 -0.0098,0.29345 -0.144776,0.17507 -0.243389,-0.21398 -0.782638,-0.45252 -1.265364,-0.55973 -0.737457,-0.16381 -2.809626,-0.0745 -3.416622,0.14723 -1.141276,0.41686 -1.656683,1.21004 -1.88084,2.89442 -0.135298,1.01697 -0.0518,3.95556 0.13105,4.60459 0.309486,1.0992 0.798586,1.6972 1.664935,2.0356 0.413133,0.16145 0.680886,0.1953 1.776948,0.22517 1.463344,0.0399 2.005223,-0.0404 2.684296,-0.39759 l 0.450389,-0.23692 -6.37e-4,0.51255 c -9.32e-4,0.71909 -0.142161,1.50859 -0.338883,1.89429 -0.120755,0.23677 -0.267557,0.3722 -0.528382,0.48758 -0.520505,0.23025 -1.489456,0.33427 -2.234118,0.23986 -1.068202,-0.13546 -1.32102,-0.36258 -1.469195,-1.31994 l -0.09003,-0.58245 h -0.853816 -0.8538 l 9.32e-4,0.64103 c 0.0016,1.18191 0.345402,1.97947 1.024115,2.37723 0.632127,0.37045 1.232945,0.4537 3.069242,0.4253 1.423947,-0.0221 1.730133,-0.0503 2.19897,-0.20348 z m -3.095697,-5.39874 c -1.351445,-0.19736 -1.727649,-0.93164 -1.733368,-3.38319 -0.0049,-1.99483 0.231461,-2.83337 0.901987,-3.20325 0.966549,-0.53318 3.01862,-0.3202 3.463976,0.35951 0.404571,0.61745 0.589462,2.02627 0.459818,3.5037 -0.107847,1.22863 -0.288865,1.85291 -0.638827,2.20287 -0.437545,0.43756 -1.490894,0.66095 -2.453586,0.52036 z m -7.293403,1.38266 c 1.253076,-0.28915 1.762618,-0.7244 2.093297,-1.78814 0.182898,-0.58837 0.203993,-3.43753 0.03039,-4.11232 -0.339144,-1.31858 -1.185934,-1.73152 -3.951768,-1.92705 -3.797024,-0.26842 -4.122116,-0.36288 -4.338103,-1.26066 -0.129579,-0.53864 -0.131376,-1.47837 -0.0033,-1.9395 0.225399,-0.81443 0.697733,-1.0488895 2.391836,-1.1872195 1.51498,-0.1237 2.932882,0.0492 3.357306,0.4093895 0.258406,0.21929 0.449507,0.7562 0.511077,1.43578 l 0.05801,0.64103 h 0.993738 0.993723 l -0.05376,-0.84782 C 18.313838,8.5218275 17.433273,8.0009975 12.97448,8.0991875 c -2.073804,0.0456 -2.622987,0.12876 -3.3777305,0.51124 -0.5236918,0.26539 -0.8698628,0.6943 -1.1019608,1.36542 -0.16659,0.4817295 -0.186754,0.6976795 -0.185676,1.9879295 0.0013,1.31336 0.01879,1.49111 0.190153,1.918 0.394489,0.98251 1.4045518,1.70729 2.6209103,1.88065 0.318458,0.0454 1.379257,0.12386 2.357358,0.17436 2.525615,0.1304 2.869024,0.2273 3.163673,0.89232 0.137259,0.30993 0.170936,0.55268 0.168747,1.21869 -0.0049,1.44469 -0.303277,2.07119 -1.080425,2.26747 -0.692651,0.17494 -2.378028,0.26125 -3.363057,0.17225 -1.837326,-0.166 -2.081549,-0.40577 -2.173889,-2.13407 l -0.04526,-0.84782 H 9.1655947 8.1838667 l 6.2e-4,0.80646 c 0.0016,2.29886 0.57273,3.25039 2.1688553,3.61459 0.817034,0.18643 0.970045,0.19435 3.289657,0.17012 1.654591,-0.0173 2.333501,-0.0556 2.769478,-0.15622 z m 19.083526,-0.0758 c 0.861349,-0.42299 1.169593,-1.06726 1.264465,-2.64283 l 0.0536,-0.88917 h -0.915386 -0.915387 v 0.66438 c 0,1.09766 -0.325451,1.5689 -1.083561,1.5689 -0.327085,0 -0.451435,-0.0456 -0.685723,-0.25128 -0.424899,-0.37307 -0.464001,-0.69375 -0.464001,-3.80578 v -2.72549 h 1.819711 1.819711 v -0.74442 -0.74443 H 34.569181 32.74947 v -1.158 -1.1579995 h -0.909848 -0.909847 v 1.1579995 1.158 h -0.620362 -0.620361 v 0.74443 0.74442 h 0.616946 0.61693 l 0.02418,3.45332 0.02402,3.4533 0.227785,0.3875 c 0.2654,0.45147 0.597616,0.70956 1.176636,0.91411 0.333768,0.11782 0.634496,0.14249 1.531941,0.12566 1.032874,-0.0195 1.151995,-0.0384 1.588054,-0.25257 z"
         id="path216" />
      <path
         style="fill:#fdbe00;stroke-width:0.0827139"
         d="m 161.03896,29.385347 c 0,-0.0172 2.38246,-2.68686 5.29436,-5.93278 2.9119,-3.24591 5.28476,-5.92805 5.27301,-5.96032 -0.0114,-0.0322 -1.1242,-1.28819 -2.47216,-2.79097 l -2.45083,-2.73232 -0.0585,-0.56091 c -0.0874,-0.83914 -0.27694,-1.6750195 -0.47066,-2.0758995 -0.28806,-0.59618 -0.96238,-0.93679 -2.21807,-1.12041 l -0.70084,-0.10245 -1.094,-1.19518 c -0.6017,-0.65736 -1.0959,-1.2231 -1.09819,-1.25723 -0.002,-0.0342 0.99526,-0.0621 2.2168,-0.0621 h 2.221 l 5.34835,5.9664495 5.34832,5.96645 -0.35419,0.38186 c -0.19479,0.21002 -2.59836,2.88499 -5.34125,5.94438 l -4.98706,5.56251 h -2.22808 c -1.22546,0 -2.22809,-0.0147 -2.22809,-0.031 z m 7.94055,0 c 0,-0.0172 2.38247,-2.68686 5.29435,-5.93278 2.9119,-3.24591 5.28477,-5.92833 5.27304,-5.96091 -0.0114,-0.0325 -2.38489,-2.69219 -5.27369,-5.91021 -2.88878,-3.2180395 -5.26475,-5.8814995 -5.27991,-5.9187995 -0.0147,-0.0373 0.97498,-0.0678 2.20033,-0.0678 h 2.22789 l 5.34833,5.9664495 5.34833,5.96645 -0.3542,0.38186 c -0.19479,0.21002 -2.59834,2.88499 -5.34123,5.94437 l -4.98706,5.56252 h -2.22809 c -1.22545,0 -2.22809,-0.0147 -2.22809,-0.031 z m 7.94056,0 c 0,-0.0172 2.38246,-2.68686 5.29436,-5.93278 2.9119,-3.24591 5.28475,-5.92833 5.27301,-5.96091 -0.0114,-0.0325 -2.38489,-2.69219 -5.27367,-5.91021 -2.88879,-3.2180395 -5.26476,-5.8814995 -5.27991,-5.9187995 -0.0147,-0.0373 0.97497,-0.0678 2.20031,-0.0678 h 2.2279 l 5.34834,5.9664495 5.34831,5.96645 -0.35417,0.38186 c -0.19481,0.21002 -2.59837,2.88499 -5.34126,5.94437 l -4.98706,5.56252 h -2.22807 c -1.22546,0 -2.22809,-0.0147 -2.22809,-0.031 z m 7.77512,0 c 0,-0.0172 2.38247,-2.68686 5.29435,-5.93278 2.91191,-3.24591 5.28477,-5.92833 5.27302,-5.96091 -0.0114,-0.0325 -2.38487,-2.69219 -5.27367,-5.91021 -2.88879,-3.2180395 -5.26475,-5.8814995 -5.27991,-5.9187995 -0.0147,-0.0373 3.7721,-0.0678 8.41616,-0.0678 h 8.44372 v 11.9108195 11.91083 h -8.43684 c -4.64025,0 -8.43683,-0.0147 -8.43683,-0.031 z m 12.3244,-21.3918295 v -0.99258 h 0.33086 c 0.23895,0 0.33086,-0.0345 0.33086,-0.12402 0,-0.10197 -0.14706,-0.12403 -0.82715,-0.12403 -0.68008,0 -0.82713,0.0221 -0.82713,0.12403 0,0.092 0.0966,0.12402 0.3722,0.12402 h 0.37222 v 0.99258 c 0,0.82713 0.0207,0.99256 0.12402,0.99256 0.10343,0 0.12402,-0.16543 0.12402,-0.99256 z m 1.15799,-0.0131 c 0,-0.5535 0.0209,-0.98549 0.0464,-0.95998 0.0255,0.0255 0.2221,0.46877 0.43686,0.98504 0.22597,0.54319 0.4432,0.94882 0.5156,0.96276 0.0899,0.0173 0.24043,-0.26174 0.53502,-0.99193 l 0.40993,-1.01604 0.0232,1.01325 c 0.019,0.82555 0.0457,1.01325 0.14478,1.01325 0.10082,0 0.12157,-0.18961 0.12157,-1.11664 v -1.11665 l -0.22746,9.5e-4 c -0.21203,9.3e-4 -0.25215,0.0626 -0.59157,0.90985 -0.20025,0.4999 -0.38637,0.90847 -0.41357,0.90795 -0.0271,-6.2e-4 -0.21331,-0.40996 -0.41356,-0.90986 -0.3186,-0.79527 -0.38839,-0.9089 -0.55833,-0.9089 h -0.19421 v 1.11665 c 0,0.68928 0.0317,1.11663 0.0827,1.11663 0.0507,0 0.0827,-0.3906 0.0827,-1.00635 z"
         id="path213" />
      <path
         style="fill:#09f389;stroke-width:0.0827139"
         d="M 37.050542,17.505627 V 5.5947975 h 31.224573 31.224561 v 7.3562795 7.3563 l -0.248145,0.64442 c -0.325712,0.84585 -0.325712,1.02039 0,1.02039 h 0.248145 v 3.72213 3.72214 H 68.275115 37.050542 Z m 25.227793,6.20697 v -2.31257 l 0.392888,0.24247 c 0.661359,0.40819 1.279368,0.51716 2.702744,0.47659 1.028086,-0.0292 1.327833,-0.0672 1.708351,-0.21594 1.399323,-0.54706 1.895857,-1.76505 1.895857,-4.65052 0,-1.60052 -0.09739,-2.45201 -0.371073,-3.24535 -0.504035,-1.46085 -1.444994,-1.92822 -3.744343,-1.85977 -1.288928,0.0384 -1.87352,0.17895 -2.370774,0.57009 l -0.21365,0.16804 v -0.2955 -0.2955 h -0.909847 -0.909864 v 6.86527 6.86527 h 0.909864 0.909847 z m 1.87419,-3.15224 c -0.869748,-0.13137 -1.428229,-0.5831 -1.625228,-1.31469 -0.367903,-1.36629 -0.231102,-4.07658 0.245301,-4.85997 0.328915,-0.54086 1.420516,-0.83555 2.518523,-0.6799 1.461383,0.20716 1.810658,0.88461 1.809858,3.51033 -6.54e-4,2.23013 -0.31648,2.99385 -1.348651,3.26162 -0.49209,0.12761 -1.09518,0.15882 -1.599803,0.0827 z m 8.630502,3.15224 v -2.31257 l 0.392888,0.24247 c 0.661359,0.40819 1.279368,0.51716 2.702727,0.47659 1.028103,-0.0292 1.32785,-0.0672 1.708368,-0.21594 1.399323,-0.54706 1.895857,-1.76505 1.895857,-4.65052 0,-1.60052 -0.09739,-2.45201 -0.371089,-3.24535 -0.504019,-1.46085 -1.444978,-1.92822 -3.744328,-1.85977 -1.288943,0.0384 -1.873536,0.17895 -2.370773,0.57009 l -0.21365,0.16804 v -0.2955 -0.2955 h -0.909864 -0.909847 v 6.86527 6.86527 h 0.909847 0.909864 z m 1.87419,-3.15224 c -0.869748,-0.13137 -1.428229,-0.5831 -1.625228,-1.31469 -0.367903,-1.36629 -0.231102,-4.07658 0.245301,-4.85997 0.328915,-0.54086 1.420516,-0.83555 2.518523,-0.6799 1.461383,0.20716 1.810658,0.88461 1.809858,3.51033 -6.54e-4,2.23013 -0.31648,2.99385 -1.348652,3.26162 -0.492089,0.12761 -1.095196,0.15882 -1.599802,0.0827 z m -18.486319,1.46011 c 1.108547,-0.21394 1.578119,-0.4922 1.936741,-1.14768 0.202849,-0.37078 0.24035,-0.5432 0.269044,-1.23727 l 0.03333,-0.80647 h -0.960829 -0.960845 v 0.42175 c 0,0.52062 -0.195872,0.95313 -0.50379,1.11235 -0.365599,0.18906 -1.732225,0.30079 -2.500597,0.20445 -1.389453,-0.17422 -1.680769,-0.55745 -1.8403,-2.42094 l -0.0549,-0.64103 h 3.413353 3.413337 l -0.05082,-1.30275 c -0.07517,-1.92561 -0.264142,-2.63661 -0.868817,-3.26773 -0.594348,-0.62034 -1.685344,-0.84432 -3.829722,-0.78621 -1.849793,0.0502 -2.36556,0.19441 -3.014518,0.84337 -0.721377,0.72138 -0.944211,1.69028 -0.945191,4.1096 -9.81e-4,2.39278 0.264272,3.56712 0.948051,4.19741 0.692243,0.63809 1.454047,0.81937 3.489924,0.83053 0.915027,0.005 1.635261,-0.0338 2.026498,-0.10931 z m -4.470672,-6.53318 c 0.08137,-0.85279 0.302117,-1.31746 0.729074,-1.53528 0.717963,-0.36627 2.577021,-0.3812 3.302451,-0.0265 0.419016,0.20488 0.671932,0.73881 0.73311,1.54774 l 0.04739,0.62625 h -2.435252 -2.435236 z m 35.984735,6.53318 c 1.108563,-0.21394 1.578135,-0.4922 1.936741,-1.14768 0.202865,-0.37078 0.24035,-0.5432 0.269044,-1.23727 l 0.03333,-0.80647 h -0.960829 -0.960829 v 0.42175 c 0,0.52062 -0.195889,0.95313 -0.50379,1.11235 -0.365615,0.18906 -1.732225,0.30079 -2.500617,0.20445 -1.389453,-0.17422 -1.680769,-0.55745 -1.840284,-2.42094 l -0.0549,-0.64103 h 3.413356 3.413354 l -0.05082,-1.30275 c -0.07516,-1.92561 -0.264142,-2.63661 -0.868817,-3.26773 -0.594347,-0.62034 -1.685344,-0.84432 -3.829725,-0.78621 -1.849777,0.0502 -2.36556,0.19441 -3.014518,0.84337 -0.721361,0.72138 -0.944211,1.69028 -0.945191,4.1096 -9.64e-4,2.39278 0.264272,3.56712 0.948067,4.19741 0.692243,0.63809 1.454031,0.81937 3.489928,0.83053 0.915011,0.005 1.635245,-0.0338 2.026482,-0.10931 z m -4.470676,-6.53318 c 0.08138,-0.85279 0.302134,-1.31746 0.729091,-1.53528 0.717962,-0.36627 2.577024,-0.3812 3.302438,-0.0265 0.419032,0.20488 0.671948,0.73881 0.733126,1.54774 l 0.04739,0.62625 h -2.435235 -2.43524 z m -43.5169,3.83805 v -2.64684 l 2.750245,-0.002 c 2.92262,-0.002 3.420707,-0.0502 4.274425,-0.41743 0.579625,-0.24934 1.03472,-0.78244 1.259188,-1.47501 0.143468,-0.44283 0.184319,-0.81463 0.215562,-1.96459 0.07418,-2.73021 -0.407186,-3.8567795 -1.856379,-4.3446395 -0.551798,-0.18575 -0.646735,-0.19025 -4.554498,-0.21543 l -3.990952,-0.0256 v 6.8689795 6.86898 h 0.951204 0.951205 z m 0,-6.86527 V 9.8132275 l 2.005828,0.003 c 3.436818,0.005 4.118292,0.13301 4.395147,0.8248695 0.173927,0.43469 0.318768,1.80976 0.252573,2.39802 -0.126148,1.12186 -0.378165,1.56218 -1.014916,1.77368 -0.576635,0.19152 -1.864092,0.28819 -3.880949,0.29138 l -1.757683,0.003 z m 54.096663,6.59646 c 8.99e-4,-1.60363 0.03807,-3.16823 0.08285,-3.47689 0.187424,-1.29613 0.874454,-1.97424 2.002984,-1.97697 0.925992,-0.002 1.342606,0.46426 1.316543,1.47416 l -0.01634,0.60909 h 0.920093 0.920109 l -0.02941,-0.97189 c -0.02614,-0.86349 -0.05523,-1.02451 -0.261087,-1.4437 -0.443215,-0.90258 -1.108627,-1.22383 -2.534961,-1.22383 -0.980797,0 -1.683448,0.16062 -2.147237,0.49088 l -0.255726,0.1821 v -0.21241 -0.21243 h -0.909864 -0.909847 v 4.83877 4.83878 h 0.909847 0.909864 l 0.0016,-2.91566 z"
         id="path210" />
      <path
         style="fill:#4700c6;stroke-width:0.0827139"
         d="M 129.69033,17.505627 V 5.5947975 h 14.00426 14.00425 l 0.37106,0.43425 c 0.20408,0.23884 0.67443,0.79095 1.04523,1.22691 l 0.6742,0.79267 -0.92609,0.13073 c -2.65916,0.3753 -2.93095,0.91169 -3.01022,5.9408795 -0.0557,3.53742 0.0959,5.50408 0.49877,6.46638 0.14364,0.3432 0.71243,0.85784 1.16012,1.04974 0.80797,0.34633 1.52078,0.44709 3.41415,0.48263 1.12527,0.0211 2.06206,-0.002 2.43068,-0.0587 0.32988,-0.0512 0.6145,-0.0783 0.63249,-0.0603 0.018,0.018 -1.38727,1.69407 -3.12279,3.72464 l -3.1555,3.69192 h -14.01032 -14.01029 z m 8.51954,4.54687 c 1.08099,-0.16865 1.6396,-0.38859 2.06346,-0.81246 0.60742,-0.60742 0.76018,-1.13677 0.81054,-2.80863 0.0657,-2.18018 -0.15539,-2.87417 -1.05034,-3.29822 -0.27056,-0.12811 -0.49206,-0.25166 -0.49222,-0.27442 0,-0.0227 0.15621,-0.11814 0.34738,-0.21213 0.19123,-0.094 0.43152,-0.29497 0.53395,-0.44674 0.33364,-0.49423 0.39273,-0.868 0.39273,-2.48426 0,-1.7988895 -0.0926,-2.1931695 -0.65048,-2.7680595 -0.67358,-0.6942 -1.90628,-0.91194 -4.80032,-0.84788 -1.99715,0.0443 -2.49772,0.11634 -3.21371,0.4629 -0.68973,0.33389 -1.10516,1.13889 -1.17963,2.2857695 -0.022,0.34052 -0.0583,0.8983 -0.0806,1.23949 l -0.0404,0.62036 h 0.98024 0.98022 v -0.76718 c 0,-0.84009 0.17465,-1.60533 0.41353,-1.81205 0.41347,-0.3577895 2.00274,-0.5330495 3.63306,-0.4006695 1.41845,0.1152 1.74426,0.26692 1.95815,0.9120395 0.0998,0.30117 0.15344,0.72053 0.15867,1.24071 0.0131,1.27154 -0.21897,1.78289 -0.89868,1.98346 -0.17641,0.0521 -1.03725,0.13644 -1.91299,0.1875 l -1.59224,0.0928 v 0.75784 0.75785 l 1.55088,0.0495 c 2.24556,0.0716 2.71332,0.24778 2.9702,1.11856 0.17803,0.60351 0.17759,1.89406 -9.5e-4,2.5079 -0.27569,0.94839 -0.87902,1.17784 -3.07272,1.16855 -1.40398,-0.007 -2.33124,-0.10344 -2.73557,-0.28771 -0.42428,-0.1933 -0.69165,-1.11673 -0.69543,-2.4016 l -0.002,-0.55832 h -0.9512 -0.95122 v 1.06206 c 0,1.80208 0.37251,2.80242 1.21193,3.25449 0.35962,0.19366 1.21562,0.42369 1.88984,0.50782 0.56515,0.0706 3.92795,0.0482 4.42522,-0.0294 z m 12.7648,-0.0387 c 2.23715,-0.39012 2.78744,-1.24585 2.78401,-4.32931 -0.002,-1.47436 -0.12206,-2.20257 -0.47044,-2.84273 -0.57268,-1.05253 -1.60513,-1.3897 -4.24282,-1.38558 -1.67752,0.003 -2.54596,0.12974 -3.24152,0.47451 l -0.48062,0.23821 0.002,-1.08187 c 0.003,-1.98731 0.21692,-2.74759 0.85141,-3.0262 0.55523,-0.2437795 1.33431,-0.3471995 2.6623,-0.3534095 0.93358,-0.005 1.35666,0.0286 1.70916,0.13301 0.78116,0.2313795 1.05919,0.7246195 0.94114,1.6695495 l -0.0567,0.45388 h 1.00871 1.00872 l -0.0404,-0.97189 c -0.0708,-1.7027995 -0.4971,-2.2698495 -2.0136,-2.6781795 -0.54915,-0.14788 -0.96132,-0.18269 -2.5588,-0.21617 -4.0504,-0.085 -5.0277,0.43397 -5.41263,2.8736795 -0.048,0.30511 -0.0851,2.0623 -0.0855,4.06283 -9.3e-4,3.84981 0.0603,4.56793 0.46272,5.44928 0.33978,0.74418 0.70808,1.04667 1.64881,1.35421 0.67509,0.22069 1.30345,0.27932 3.10867,0.28999 1.18473,0.007 1.92236,-0.0278 2.41569,-0.11373 z m -3.1286,-1.50021 c -1.35269,-0.10098 -2.014,-0.34564 -2.26396,-0.8378 -0.30163,-0.59391 -0.48049,-2.12344 -0.34447,-2.94582 0.16484,-0.99657 0.54902,-1.36542 1.61372,-1.54923 0.74393,-0.12844 2.72399,-0.12713 3.48352,0.002 1.08517,0.18486 1.36732,0.53633 1.52121,1.89493 0.10098,0.89189 -0.008,2.12911 -0.22896,2.57725 -0.19736,0.40187 -0.58762,0.63355 -1.23912,0.73559 -0.65986,0.10327 -1.96075,0.16623 -2.54194,0.12288 z m 12.34973,-0.0309 c -1.41114,-0.13285 -2.02678,-0.44616 -2.20724,-1.12364 -0.25386,-0.95307 -0.38367,-3.87688 -0.26771,-6.03053 0.093,-1.72784 0.20679,-2.47803 0.43188,-2.84815 0.26726,-0.43949 0.99482,-0.6688795 2.48163,-0.7824395 l 0.54658,-0.0418 1.84009,2.1552295 1.84007,2.15521 0.042,0.46675 c 0.0592,0.65688 -0.12336,4.00348 -0.25142,4.61311 -0.13677,0.65075 -0.31769,0.91954 -0.74535,1.10732 -0.686,0.30119 -2.39491,0.45268 -3.71051,0.32892 z m 6.41473,-1.65368 c 0.0283,-0.11372 0.0765,-0.74253 0.10687,-1.39734 l 0.0556,-1.19058 0.4361,0.4875 c 0.72105,0.80607 0.71739,0.75857 0.11242,1.45555 -0.77695,0.89522 -0.77221,0.89093 -0.71105,0.64487 z"
         id="path207" />
      <path
         style="fill:#e00015;stroke-width:0.0827139"
         d="m 99.499676,25.697307 v -3.71913 l 0.795834,-0.0237 0.79586,-0.0237 0.49825,-1.38545 0.49825,-1.38547 h 3.15309 3.15308 l 0.36114,0.97189 c 0.19861,0.53454 0.43334,1.16731 0.5216,1.40614 l 0.16046,0.43424 h 1.02797 c 0.99461,0 1.02799,-0.007 1.02799,-0.17664 0,-0.0972 -1.12518,-3.18653 -2.5004,-6.86527 l -2.50039,-6.6886295 h -1.29561 c -1.15707,0 -1.30169,0.0147 -1.35252,0.14478 -0.0508,0.12925 -3.80977,10.3702295 -4.182097,11.3938695 -0.147556,0.40548 -0.150497,0.27108 -0.156543,-6.88596 l -0.0065,-7.2995095 h 15.09528 15.09534 V 17.505617 29.416437 H 114.59442 99.499104 Z m 27.018314,-3.63687 c 0.78991,-0.14984 1.35875,-0.42138 1.80988,-0.86411 0.55196,-0.54168 0.74491,-1.05337 0.80689,-2.1398 l 0.0461,-0.80646 h -0.94457 -0.94459 v 0.40948 c 0,1.07022 -0.31058,1.63795 -1.00018,1.82831 -0.54238,0.14968 -1.9345,0.12648 -2.51395,-0.042 -1.03857,-0.30192 -1.30142,-0.95253 -1.30494,-3.22977 -0.003,-2.05642 0.22638,-2.94968 0.83818,-3.26178 0.48663,-0.24828 1.30416,-0.34163 2.15038,-0.24557 1.23984,0.14069 1.5971,0.44382 1.65117,1.40078 l 0.0325,0.57636 h 0.94188 0.94189 l -0.003,-0.26882 c -0.005,-0.58552 -0.16756,-1.48975 -0.33779,-1.88545 -0.23494,-0.54614 -0.71332,-0.94762 -1.3932,-1.16923 -0.45231,-0.14739 -0.79899,-0.18228 -2.11267,-0.21231 -1.72398,-0.0394 -2.33677,0.0451 -3.08183,0.42529 -1.1182,0.57056 -1.51021,1.75355 -1.50717,4.54817 0.003,3.46751 0.49873,4.47612 2.39709,4.88507 0.62467,0.13464 2.91379,0.16819 3.5275,0.0518 z m -11.94476,-3.33477 c 0.0356,-3.507 0.0556,-3.67923 0.50815,-4.36306 0.41596,-0.62855 1.49898,-0.93674 2.22533,-0.63327 0.46611,0.19476 0.63753,0.54829 0.63791,1.31555 v 0.64103 h 0.90985 0.90986 v -0.859 c 0,-1.12658 -0.15311,-1.61424 -0.66991,-2.13316 -0.50931,-0.51175 -0.96687,-0.64726 -2.18529,-0.64726 -1.0164,0 -1.52099,0.11177 -2.03266,0.45042 l -0.32284,0.21363 v -0.20794 -0.20797 h -0.90984 -0.90987 v 4.83877 4.83878 h 0.9032 0.90318 z m -11.59228,-1.98514 c 0.18328,-0.5118 0.74597,-2.0844 1.25047,-3.49467 0.50449,-1.41028 0.941,-2.59153 0.97002,-2.62499 0.0291,-0.0335 0.6321,1.53913 1.34016,3.49468 l 1.28741,3.55551 h -2.59064 -2.59063 z"
         id="path204" />
      <path
         style="fill:#110c00;stroke-width:0.0827139"
         d="m 196.77145,7.9935175 v -0.99258 h -0.37222 c -0.27571,0 -0.3722,-0.0322 -0.3722,-0.12402 0,-0.10197 0.14706,-0.12403 0.82713,-0.12403 0.6801,0 0.82715,0.0221 0.82715,0.12403 0,0.0895 -0.0918,0.12402 -0.33086,0.12402 h -0.33086 v 0.99258 c 0,0.82713 -0.0207,0.99256 -0.12402,0.99256 -0.10344,0 -0.12403,-0.16543 -0.12403,-0.99256 z m 1.2407,-0.12403 c 0,-1.10995 0.001,-1.11665 0.19019,-1.11665 0.16448,0 0.2385,0.12027 0.54761,0.88918 0.19659,0.48905 0.3813,0.91568 0.41047,0.94805 0.0292,0.0324 0.22009,-0.36771 0.42428,-0.88909 0.34811,-0.88893 0.3854,-0.94797 0.59871,-0.94805 l 0.22746,-9e-5 v 1.11665 c 0,0.92703 -0.0206,1.11664 -0.12157,1.11664 -0.099,0 -0.12582,-0.1877 -0.14478,-1.01325 l -0.0232,-1.01325 -0.40859,1.01629 c -0.28836,0.71724 -0.44454,1.00931 -0.53075,0.99258 -0.0688,-0.0131 -0.28995,-0.42967 -0.50574,-0.95183 -0.21095,-0.51045 -0.40947,-0.95401 -0.44114,-0.98568 -0.0317,-0.0317 -0.0575,0.39529 -0.0575,0.94879 0,0.61575 -0.032,1.00635 -0.0827,1.00635 -0.051,0 -0.0827,-0.42735 -0.0827,-1.11664 z"
         id="path201" />
    </g>
  </g>
</svg>
